<?xml version="1.0" encoding="utf-8"?>
<!-- Generator: Adobe Illustrator 23.0.1, SVG Export Plug-In . SVG Version: 6.00 Build 0)  -->
<svg version="1.1" id="Capa_1" xmlns="http://www.w3.org/2000/svg" xmlns:xlink="http://www.w3.org/1999/xlink" x="0px" y="0px"
	 viewBox="0 0 20 20" style="enable-background:new 0 0 20 20;" xml:space="preserve">
<style type="text/css">
	.st0{fill:#FFFFFF;}
	.st1{fill:#FF0000;}
	.st2{fill:#FFEA00;}
	.st3{fill:#FFEA01;}
	.st4{fill:#7F0202;}
	.st5{fill:#D6D6D6;}
	.st6{fill:#970000;}
	.st7{fill:#8A1919;}
	.st8{fill:#BCBCBC;}
	.st9{fill:#F0B800;}
	.st10{fill:#8A0000;}
	.st11{fill:#8B1A1A;}
	.st12{fill:#700101;}
	.st13{fill:#700202;}
	.st14{fill:#8C1C1C;}
	.st15{fill:#8E1F1F;}
	.st16{fill:#BFBFBF;}
	.st17{fill:#850E0E;}
	.st18{fill:#C0BFBF;}
	.st19{fill:#C3C3C3;}
	.st20{fill:#C8C8C8;}
	.st21{fill:#B45D5D;}
	.st22{fill:#010000;}
	.st23{fill:#030303;}
	.st24{fill:#090707;}
	.st25{fill:#1F1919;}
	.st26{fill:#171313;}
	.st27{fill:#363131;}
	.st28{fill:#252020;}
	.st29{fill:#2B2525;}
	.st30{fill:#5E5757;}
	.st31{fill:#675F5F;}
	.st32{fill:#1B1515;}
	.st33{fill:#BDBDBD;}
	.st34{fill:#BEBEBE;}
	.st35{fill:#C2C1C1;}
	.st36{opacity:0.81;fill:#FFFFFF;enable-background:new    ;}
	.st37{opacity:0.91;fill:#FFFFFF;enable-background:new    ;}
</style>
<g>
	<g id="Capa_7">
		<path class="st0" d="M11.62,3.47c0.8,0.09,1.89,0.39,2.5,0.85c1.24,0.94,1.63,3.4,0.82,5.25c-0.92,2.1-3.03,2.61-3.6,2.75
			c-0.62,0.15-2.31,0.56-3.84-0.53c-0.28-0.2-1.41-1.05-1.74-2.6C5.18,6.51,7.47,3.95,8.91,3.6c0.2-0.05,1.05-0.22,2.13-0.17
			C11.14,3.43,11.37,3.44,11.62,3.47z"/>
		<path class="st1" d="M14.41,6.02c0.22,0.08,0.43,0.19,0.63,0.33c0.06,0.04,0.11,0.08,0.16,0.12c0.01,0.01,0.03,0.02,0.05,0.04
			c0.25,0.22,0.37,0.33,0.45,0.48c0.02,0.04,0.06,0.13,0.07,0.12c0.01,0,0-0.02,0-0.03c0-0.1,0-0.2,0-0.3
			c0-0.09-0.01-0.17-0.02-0.25c-0.01-0.08-0.02-0.17-0.04-0.25c-0.08-0.48-0.25-0.94-0.5-1.34c-0.12-0.19-0.25-0.38-0.4-0.55
			c-0.23-0.27-0.5-0.5-0.78-0.69c-0.02-0.02-0.41-0.27-0.81-0.41c-0.22-0.08-0.41-0.12-0.41-0.12c-0.03-0.01-0.11-0.03-0.23-0.06
			c-0.07-0.02-0.14-0.03-0.18-0.04c-0.09,0-0.19-0.02-0.28-0.04C12.12,3.01,12.09,3,12.05,3c-0.06-0.01-0.12-0.01-0.19-0.01
			c-0.07,0-0.11,0.01-0.16,0.01C11.64,3,11.62,3,11.2,3c-0.07,0-0.09,0-0.12,0c-0.02,0-0.11,0-0.26,0.02
			c-0.07,0.01-0.15,0.02-0.23,0.03c-0.07,0.01-0.19,0.03-0.33,0.07C10.1,3.16,9.99,3.19,9.87,3.23C9.83,3.24,9.67,3.29,9.5,3.36
			c-0.29,0.11-0.57,0.25-0.84,0.4C8.4,3.9,7.97,4.15,7.49,4.59C7.23,4.83,6.99,5.1,6.77,5.39c-0.2,0.26-0.55,0.74-0.81,1.44
			c-0.11,0.29-0.19,0.6-0.24,0.9C5.69,7.91,5.67,8.01,5.67,8.16c-0.01,0.22,0.02,0.31,0,0.51C5.66,8.73,5.65,8.8,5.65,8.87
			c0,0,0,0.07,0.01,0.15c0.09,0.77,0.42,1.38,0.42,1.38c0.17,0.32,0.35,0.53,0.49,0.69c0.37,0.43,0.72,0.68,0.82,0.75
			c0.14,0.1,0.51,0.34,0.92,0.46c0.28,0.08,0.42,0.12,0.51,0.12c0,0,0.2,0,0.29,0.06c0.02,0.01,0.03,0.02,0.05,0.02
			c0.02,0.01,0.04,0.01,0.06,0.01c0.04,0.01,0.06,0.01,0.07,0.01c0.06,0.03,0.21,0.02,0.7,0.02h0.23c0.09,0,0.09,0,0.09,0
			c0.12,0,0.18-0.03,0.31-0.06c0.01,0,0.1-0.02,0.27-0.04c0.21-0.03,0.22-0.03,0.27-0.04c0.01,0,0.16-0.03,0.31-0.08
			c0.36-0.11,0.46-0.23,0.76-0.32c0.07-0.02,0.11-0.04,0.2-0.07c0.18-0.07,0.21-0.09,0.22-0.1c0.01-0.02,0.03-0.03,0.05-0.03
			c0.02,0,0.03,0,0.05,0c0.04,0.01,0.07,0.07,0.07,0.08c0.02,0.05,0.04,0.02,0.43,0.49c0.7,0.84,0.67,0.96,0.85,1.14
			c0.06,0.11,0.09,0.16,0.1,0.18c0.01,0.01,0.02,0.02,0.02,0.04c0,0.01,0,0.02-0.01,0.03c-0.01,0.01-0.02,0.02-0.03,0.03
			c-0.03,0.02-0.05,0.03-0.09,0.04c-0.1,0.02-0.46,0.23-0.76,0.38c-0.04,0.02-0.08,0.03-0.12,0.04c-0.07,0.02-0.1,0.01-0.11,0.01
			c-0.04-0.01-0.07-0.03-0.1-0.05c0,0-0.1-0.07-0.4-0.15c-0.01,0-0.02,0-0.04-0.01c-0.04-0.01-0.06-0.02-0.06-0.01s0,0,0.02,0.01
			c0.02,0.01,0.04,0.02,0.06,0.03c0.01,0.01,0.01,0.01,0.02,0.02c0.03,0.03,0.09,0.06,0.2,0.11c0.04,0.02,0.06,0.03,0.09,0.05
			c0.01,0.01,0.03,0.03,0.04,0.04c0.03,0.03,0.04,0.05,0.04,0.06c0,0.02-0.02,0.03-0.06,0.04c-0.06,0.02-0.09,0.04-0.12,0.04
			c-0.1,0.02-0.26,0.1-0.68,0.24c-0.33,0.1-0.24,0.05-0.43,0.11c0,0-0.11,0.03-0.27,0.03c-0.02,0-0.04,0-0.06-0.01
			c-0.02-0.01-0.04-0.02-0.07-0.04c-0.04-0.03-0.03-0.02-0.08-0.05c-0.07-0.05-0.06-0.05-0.1-0.07s-0.04-0.02-0.1-0.05
			c-0.02-0.01-0.05-0.03-0.07-0.05c-0.01-0.01-0.01-0.01-0.02-0.02c-0.04-0.03-0.08-0.04-0.09-0.03c0,0,0,0.01,0.02,0.02l0.04,0.04
			c0.06,0.07,0.06,0.07,0.09,0.1c0.04,0.03,0.06,0.05,0.08,0.06c0.02,0.01,0.03,0.03,0.05,0.05l0,0c0,0.02,0.02,0.03,0.03,0.06
			c0.01,0.02,0.01,0.04,0,0.05c-0.01,0.02-0.03,0.03-0.04,0.03c-0.06,0.02-0.11,0.02-0.15,0.02c-0.1,0.01-0.1,0.05-0.19,0.04
			c-0.04,0-0.05-0.01-0.1-0.01c-0.05,0-0.09,0.01-0.13,0.02c-0.06,0.01-0.08,0.01-0.18,0.01c-0.07,0,0.04,0-0.3,0.01
			C9.58,15.01,9.62,15,9.59,15c-0.03,0.01-0.06,0-0.13,0c-0.02,0-0.05,0-0.07-0.02c-0.02-0.02-0.03-0.04-0.03-0.06
			c-0.02-0.04-0.05-0.08-0.08-0.11c-0.11-0.11-0.15-0.16-0.16-0.17c0,0-0.01-0.01-0.01-0.01c-0.02-0.01-0.03-0.01-0.03-0.02
			c0-0.01,0.01-0.01,0.01-0.01c0,0-0.02-0.01-0.02-0.01s0.01,0.03,0.01,0.04c0.01,0.03,0.02,0.06,0.04,0.09l0,0
			c0.04,0.09,0.06,0.13,0.06,0.13c0.01,0.02,0.03,0.04,0.02,0.07c0,0.01-0.01,0.02-0.03,0.03c-0.02,0.02-0.03,0.03-0.05,0.03
			c-0.02,0.01-0.04,0-0.06,0l-0.11-0.01c-0.08-0.01-0.14-0.01-0.17-0.02c0,0-0.01-0.01-0.03-0.01c0,0-0.02-0.01-0.04-0.01
			c-0.03-0.01-0.07,0-0.11,0c-0.05,0-0.05-0.01-0.12-0.02c-0.03,0-0.06,0-0.09,0c-0.09,0.01-0.18-0.03-0.26-0.06
			c-0.1-0.03-0.06-0.01-0.34-0.07c-0.24-0.06-0.28-0.08-0.34-0.08c-0.03,0-0.06-0.01-0.09-0.02c-0.02-0.01-0.04-0.02-0.05-0.03
			c-0.02-0.03-0.02-0.05-0.03-0.1c-0.01-0.03-0.02-0.06-0.04-0.09c-0.11-0.18-0.15-0.26-0.18-0.31c0-0.01-0.02-0.04-0.02-0.04
			s0.01,0.03,0.01,0.04c0.03,0.08,0,0.18,0.06,0.26c0.02,0.02,0.03,0.04,0.03,0.07c0,0.01,0,0.01-0.03,0.04
			c-0.03,0.04-0.03,0.04-0.04,0.04c-0.02,0-0.02-0.01-0.06-0.02C7.02,14.56,7,14.55,6.98,14.55c-0.06-0.01-0.91-0.25-1.26-0.54
			C5.72,14,5.46,13.78,5.42,13.76c-0.01-0.01-0.03-0.02-0.04-0.03c-0.02-0.01-0.03-0.03-0.03-0.05c0-0.02,0-0.03,0-0.05
			c0-0.05,0.01-0.1,0.02-0.14c0,0,0.02-0.11,0.02-0.37c0,0,0-0.04,0-0.04c0,0,0,0.01-0.01,0.02c-0.01,0.01-0.01,0.02-0.01,0.02
			c-0.01,0.02-0.01,0.04-0.01,0.06c-0.01,0.04-0.01,0.07-0.02,0.11c-0.02,0.1-0.04,0.1-0.06,0.19c-0.02,0.08-0.02,0.09-0.03,0.1
			c-0.01,0.02-0.03,0.02-0.05,0.03c-0.05,0-0.1-0.07-0.11-0.08c0,0-0.21,0.05-1.12-1.07c-0.01-0.01-0.01-0.02-0.02-0.02
			c-0.01-0.03-0.02-0.06-0.01-0.09c0.01-0.09,0.04-0.18,0.08-0.26c0,0,0,0,0-0.01c0.05-0.09,0.11-0.22,0.11-0.28
			c0,0,0-0.01-0.01-0.02c-0.01,0-0.02,0.01-0.02,0.02c-0.01,0.02-0.03,0.04-0.03,0.07l0,0c-0.01,0.05-0.07,0.14-0.2,0.33
			c-0.01,0.01-0.02,0.02-0.03,0.03c-0.01,0.01-0.02,0.01-0.02,0.01c-0.01,0-0.01-0.02-0.03-0.04c-0.01,0-0.01,0-0.02-0.01
			c-0.01-0.01-0.01-0.01-0.02-0.02c-0.04-0.06-0.08-0.12-0.12-0.18c-0.22-0.33-0.4-0.68-0.55-1.04c-0.02-0.04-0.04-0.09-0.05-0.13
			c-0.01-0.03,0-0.06,0.02-0.09c0.07-0.08,0.14-0.15,0.21-0.23c0.06-0.06,0.08-0.14,0.12-0.16c0.01,0,0.01-0.01,0.02-0.01
			c0.01-0.01,0.02-0.02,0.01-0.02c0,0,0,0-0.01-0.01c0,0-0.01-0.01-0.01-0.01c0,0-0.01,0-0.02-0.01c-0.02,0-0.04,0.06-0.04,0.06
			c-0.04,0.07-0.16,0.14-0.3,0.23c-0.01,0-0.04,0.02-0.05,0.01c0,0-0.01-0.01-0.02-0.01s-0.01,0-0.01-0.01
			c-0.01-0.02-0.02-0.03-0.03-0.05c-0.04-0.12-0.07-0.24-0.1-0.37c-0.03-0.15-0.06-0.3-0.08-0.46C2.71,9.46,2.69,9.27,2.7,9.07
			c0-0.02,0-0.04,0-0.06c0-0.02,0.01-0.03,0.02-0.04c0.01-0.02,0.03-0.03,0.05-0.04c0.05-0.03,0.1-0.07,0.15-0.1
			C2.95,8.8,2.99,8.76,3.05,8.69c0,0,0.02-0.02,0.02-0.03c0-0.01-0.02,0.01-0.04,0.01c-0.01,0-0.01,0-0.02,0
			C3,8.68,2.99,8.68,2.98,8.69C2.96,8.71,2.86,8.75,2.82,8.76C2.78,8.78,2.77,8.78,2.76,8.78C2.72,8.76,2.71,8.72,2.7,8.7
			c-0.02-0.07,0-0.12,0.01-0.22c0.01-0.06,0.01-0.12,0.02-0.17c0.01-0.1,0.02-0.19,0.04-0.28C2.8,7.79,2.85,7.56,2.91,7.34
			c0.01-0.03,0.02-0.06,0.03-0.09c0.01-0.02,0.02-0.04,0.04-0.04c0.08-0.02,0.16-0.05,0.25-0.06C3.37,7.11,3.5,7.06,3.62,7
			c0.01-0.01,0.02-0.01,0.02-0.02c0,0,0-0.01,0-0.02c-0.01-0.01-0.03,0-0.06,0.01c-0.03,0.01-0.02,0-0.09,0.01
			C3.46,6.98,3.43,6.99,3.4,6.99c-0.01,0-0.02,0-0.03,0c-0.03,0-0.07,0-0.19,0.03C3.11,7.04,3.07,7.05,3.06,7.03
			C3.05,7.02,3.04,7.01,3.04,7c0-0.01,0-0.02,0-0.03c0-0.01,0-0.02,0.01-0.03C3.1,6.79,3.16,6.64,3.22,6.5
			c0.12-0.25,0.24-0.5,0.39-0.74c0.01-0.02,0.03-0.04,0.04-0.07c0.04-0.05,0.09-0.08,0.15-0.09c0.04,0,0.07,0,0.11,0
			c0.06,0,0.12-0.01,0.18-0.02c0.09-0.01,0.18-0.03,0.27-0.05c0.01,0,0.01-0.01,0.02-0.01c0-0.01,0.01-0.02,0.01-0.02
			c0-0.01-0.01,0-0.02-0.01c-0.01,0-0.03-0.01-0.04-0.01C4.27,5.47,3.94,5.53,3.87,5.44c0-0.01-0.03-0.03-0.02-0.05
			c0.01-0.02,0.02-0.04,0.03-0.05c0.04-0.06,0.08-0.11,0.12-0.16c0.12-0.16,0.24-0.31,0.38-0.46c0.09-0.1,0.19-0.2,0.29-0.31
			C4.68,4.4,4.69,4.39,4.7,4.37c0.02-0.02,0.03-0.03,0.05-0.04c0.03-0.02,0.07-0.03,0.11-0.02c0.02,0,0.05,0,0.07,0.01
			C5.07,4.36,5.2,4.38,5.33,4.43c0,0,0.04,0.01,0.1,0.02c0,0,0.05,0.01,0.06-0.01c0,0,0-0.01,0-0.01c0-0.01-0.01-0.02-0.02-0.02
			C5.48,4.41,5.46,4.4,5.45,4.39C5.33,4.33,5.2,4.28,5.07,4.23C5.04,4.22,5.01,4.2,4.98,4.19C4.96,4.18,4.95,4.15,4.97,4.13
			C5,4.1,5.02,4.07,5.05,4.05c0.16-0.14,0.33-0.28,0.5-0.41c0.1-0.08,0.21-0.15,0.31-0.22c0.03-0.02,0.07-0.04,0.1-0.07
			C5.99,3.34,6.03,3.32,6.08,3.3s0.08-0.03,0.11-0.03c0.07,0,0.09,0.06,0.18,0.07c0.02,0,0.01,0,0.04,0c0.05,0,0.1,0.01,0.15,0.02
			c0,0,0.09,0.03,0.13,0.03c0,0,0.01,0,0.02-0.01c0,0,0-0.01,0-0.01c0,0,0-0.01,0-0.01C6.68,3.35,6.67,3.35,6.66,3.34
			c-0.1-0.05-0.19-0.1-0.29-0.14C6.36,3.19,6.34,3.18,6.33,3.17c-0.01-0.01-0.01-0.02,0-0.03c0.01-0.01,0.01-0.02,0.02-0.02
			C6.37,3.1,6.39,3.09,6.4,3.08C6.72,2.9,7.05,2.74,7.39,2.6C7.46,2.57,7.53,2.54,7.6,2.52C7.63,2.5,7.66,2.5,7.69,2.5
			c0.09,0,0.12,0.05,0.26,0.11c0.1,0.05,0.2,0.08,0.21,0.06c0,0,0-0.01,0-0.01C8.15,2.65,8.14,2.64,8.13,2.63
			c-0.07-0.06-0.13-0.11-0.2-0.17C7.92,2.46,7.91,2.44,7.91,2.43c0-0.01,0.01-0.03,0.02-0.04c0,0,0.01-0.01,0.01-0.01
			c0.11-0.03,0.22-0.07,0.33-0.1C8.39,2.25,8.5,2.22,8.61,2.19c0.06-0.02,0.12-0.03,0.18-0.04c0.06-0.01,0.12-0.03,0.18-0.04
			C9.11,2.08,9.25,2.06,9.4,2.03c0.03-0.01,0.03,0,0.07-0.01c0.04-0.01,0.05-0.01,0.08,0c0.02,0,0.03,0.01,0.05,0.02
			C9.64,2.06,9.67,2.09,9.7,2.12c0.02,0.02,0.05,0.04,0.08,0.06c0,0,0.01,0.01,0.02,0.01c0,0,0.01-0.01,0.01-0.01
			c0-0.01,0-0.01,0-0.02C9.77,2.11,9.76,2.1,9.76,2.1C9.75,2.09,9.74,2.07,9.73,2.05c0-0.01,0-0.02,0-0.03c0-0.01,0-0.02,0.01-0.02
			c0,0,0,0,0,0c0.08-0.02,0.17-0.03,0.25-0.04c0.1,0,0.2-0.01,0.3-0.02c0.02,0,0.03,0,0.05,0c0.26-0.01,0.51-0.01,0.77,0
			c0.01,0,0.03,0,0.06,0c0.03,0,0.04,0,0.06,0c0.03,0,0.05,0.01,0.08,0.03c0.03,0.03,0.02,0.05,0.06,0.09
			c0.03,0.04,0.06,0.04,0.07,0.07c0.01,0.02,0.01,0.03,0.02,0.05c0.01,0.01,0.02,0.02,0.03,0.02c0,0,0-0.01,0-0.03
			c0-0.04,0-0.04,0-0.06c0-0.02-0.01-0.02-0.02-0.07C11.45,2.03,11.44,2.02,11.44,2c0-0.01,0.01-0.03,0.02-0.04
			c0.01,0,0.02,0,0.03,0c0.01,0,0.02,0,0.03,0C11.65,1.97,11.78,1.99,11.9,2c0.05,0.01,0.1,0.02,0.15,0.02
			c0.08,0.01,0.16,0.03,0.24,0.04c0.12,0.03,0.25,0.05,0.37,0.08c0,0,0.27,0.06,0.54,0.15c0.84,0.25,1.42,0.56,1.42,0.56
			c0.52,0.28,1.01,0.64,1.44,1.06c0.2,0.2,0.56,0.55,0.89,1.09c0.11,0.18,0.21,0.36,0.3,0.55c0,0,0.25,0.51,0.35,0.89
			c0.02,0.1,0.03,0.12,0.03,0.12c0.01,0.06,0.01,0.11,0.02,0.11c0.01,0,0.02-0.02,0.02-0.03c0.02-0.08,0.49-0.46,0.74-0.71
			c0.04-0.04,0.1-0.1,0.17-0.18l0.03-0.02c0,0.01,0.01,0.02,0.01,0.03c0.01,0.04,0,0.08-0.01,0.12c-0.01,0.04-0.03,0.08-0.05,0.12
			c-0.16,0.28-0.28,0.59-0.46,0.86C17.74,7.41,17,8.64,16.77,9.07c0,0-0.07,0.14-0.38,0.53c-0.08,0.11-0.06,0.05-0.13,0.12
			c-0.01,0.01-0.03,0.03-0.05,0.03c0,0-0.02,0-0.04-0.03c-0.02-0.02-0.03-0.05-0.03-0.08c0-0.02-0.07-0.2-0.21-0.56
			c-0.09-0.22-0.18-0.43-0.28-0.64c-0.03-0.06-0.06-0.12-0.08-0.19c-0.02-0.06-0.05-0.13-0.08-0.19c-0.08-0.17-0.17-0.34-0.26-0.5
			c-0.07-0.13-0.14-0.26-0.21-0.39c-0.05-0.1-0.1-0.19-0.15-0.29c-0.09-0.19-0.2-0.38-0.32-0.56c-0.05-0.08-0.1-0.16-0.15-0.24
			c-0.05-0.07-0.08-0.1-0.07-0.11C14.33,5.97,14.36,5.98,14.41,6.02z"/>
		<path class="st1" d="M17.77,8.13c0,0.19-0.02,0.38-0.04,0.58c-0.07,0.52-0.2,1.03-0.4,1.51c-0.15,0.35-0.32,0.69-0.52,1.01
			c0,0.01-0.02,0.03-0.03,0.05c-0.03,0.05-0.05,0.07-0.06,0.08c-0.02,0.02-0.06,0.02-0.12,0.03c-0.03,0-0.04,0-0.11,0
			c-0.06,0-0.09,0-0.1,0c-0.11,0.01-0.13,0.03-0.24,0.04c-0.04,0-0.09,0.01-0.13,0C16,11.44,16,11.45,16,11.45c0,0,0.01,0,0.01,0
			c0,0,0,0.01,0,0.01c0,0.01,0.03,0.01,0.05,0.01l0,0c0,0,0.06,0.01,0.16,0.02c0.08,0.01,0.07,0.02,0.11,0.02
			c0.08,0.01,0.13-0.01,0.21,0.02c0.02,0.01,0.04,0.02,0.04,0.03c0,0.02-0.02,0.05-0.03,0.06c-0.02,0.02,0.08-0.07-0.13,0.18
			c-0.19,0.24-0.27,0.32-0.27,0.32c-0.23,0.25-0.34,0.38-0.46,0.52c0,0-0.04,0.05-0.31,0.28c-0.02,0.02-0.04,0.03-0.06,0.03
			c-0.02,0-0.05,0-0.07,0c-0.01,0-0.03-0.01-0.04-0.01c-0.02-0.01-0.03-0.02-0.05-0.04c-0.03-0.04-0.04-0.04-0.04-0.04
			c-0.47-0.55-0.7-0.83-0.8-0.94c-0.37-0.41-0.56-0.62-0.57-0.62c-0.01,0-0.05-0.03-0.06-0.07c0,0-0.01-0.04,0.01-0.06
			c0.01-0.01,0.02-0.01,0.03-0.02c0.01-0.01,0.02-0.01,0.02-0.02c0.02-0.02,0.05-0.04,0.07-0.06c0.32-0.28,0.63-0.63,0.63-0.63
			c0.23-0.27,0.42-0.56,0.59-0.87c0.14-0.25,0.33-0.61,0.35-0.71c0-0.01,0.02-0.05,0.06-0.13c0-0.01,0.01-0.02,0.02-0.02
			c0.01,0,0.01,0,0.02,0c0.01,0,0.02,0,0.03,0.01c0.01,0.01,0,0.01,0.01,0.03c0,0,0,0.01,0.01,0.03c0.01,0.02,0.01,0.03,0.02,0.04
			c0.02,0.03,0.16,0.33,0.28,0.7c0.04,0.12,0.09,0.23,0.12,0.35c0.01,0.04,0.03,0.08,0.05,0.12c0.01,0.02,0.02,0.05,0.04,0.07
			c0.02,0.04,0.06,0.06,0.1,0.07c0.01,0,0.02,0,0.03,0c0.03-0.01,0.07-0.03,0.09-0.05c0.04-0.04,0.07-0.08,0.09-0.13
			c0.16-0.38,0.44-0.69,0.66-1.03c0.23-0.36,0.24-0.37,0.3-0.49c0.07-0.13,0.16-0.24,0.21-0.38c0,0,0.03-0.1,0.16-0.23
			c0.01-0.01,0.03-0.03,0.04-0.02c0.01,0,0.02,0.01,0.02,0.02c0,0,0,0.01,0,0.02c0,0.01,0,0.01,0,0.02c0,0.01,0,0.02,0,0.03
			C17.77,7.97,17.77,8.05,17.77,8.13z"/>
		<path class="st2" d="M17.93,16.17c0,0.01-0.01,0.02-0.01,0.03c-0.01,0.02-0.03,0.03-0.04,0.05c-0.11,0.1-0.23,0.21-0.35,0.3
			c-0.15,0.11-0.13,0.08-0.26,0.17c0,0-0.05,0.04-0.21,0.12c-0.01,0.01-0.02,0.01-0.03,0.01c-0.01,0-0.03,0-0.04,0
			c-0.02,0-0.03-0.01-0.04-0.02c-0.55-0.47-0.72-0.82-0.72-0.82c-0.34-0.7-0.92-1.23-1.37-1.85c-0.16-0.22-0.61-0.81-1.51-1.99
			c-0.57-0.75-0.87-1.14-1.25-1.63c-0.64-0.82-0.96-1.23-1.06-1.35c-0.1-0.11-0.18-0.25-0.28-0.35c-0.09-0.09-0.24-0.22-0.21-0.3
			c0.01-0.02,0.02-0.04,0.03-0.06c0.02-0.02,0.05-0.04,0.08-0.05c0,0,0.01,0,0.01,0c0,0,0.01,0,0.01,0c0.02,0,0.03-0.01,0.05-0.01
			c0.2-0.05,1.02,1.01,1.02,1.01c0.46,0.59,0.81,0.89,1.2,1.35c0.13,0.16,0.2,0.24,0.34,0.4c0.04,0.04,0.07,0.08,0.09,0.11
			c0.03,0.03,0.05,0.06,0.08,0.09c0.08,0.07,0.15,0.15,0.22,0.22c1.01,1.07,2.02,2.14,3.02,3.22c0.15,0.16,0.68,0.54,1.16,1.24
			C17.89,16.11,17.91,16.15,17.93,16.17z"/>
		<path class="st3" d="M10.32,8.36c-0.02,0-0.03,0-0.05,0c-0.05,0-0.09-0.02-0.14-0.04c-0.06-0.03-0.09-0.05-0.11-0.09
			C9.99,8.19,9.99,8.14,9.98,8.11c0-0.02-0.01-0.04-0.01-0.05c0-0.01,0-0.02,0-0.03c0-0.05,0.02-0.09,0.05-0.13
			c0.06-0.07,0.14-0.12,0.24-0.12c0.02,0,0.05,0,0.08,0c0.04,0,0.06,0.01,0.12,0.02c0.1,0.03,0.13,0.05,0.14,0.05
			c0.02,0.01,0.04,0.03,0.05,0.04c0.02,0.03,0.03,0.06,0.04,0.09c0.01,0.03,0.01,0.05,0.01,0.1c0,0.04,0,0.06,0,0.08
			c-0.01,0.07-0.06,0.11-0.07,0.12c-0.02,0.02-0.04,0.03-0.07,0.04c-0.05,0.02-0.1,0.05-0.17,0.04C10.36,8.37,10.34,8.37,10.32,8.36
			z"/>
		<path class="st2" d="M14.32,8.5c0,0.02,0,0.03,0,0.05c-0.01,0.12-0.01,0.25-0.02,0.37c-0.03,0.27-0.07,0.53-0.15,0.78
			c-0.03,0.09-0.06,0.18-0.1,0.27c-0.06,0.15-0.14,0.28-0.23,0.41c-0.04,0.06-0.09,0.11-0.14,0.16c-0.02,0.02-0.06,0.02-0.08,0
			c-0.02-0.01-0.03-0.03-0.05-0.04c-0.45-0.42-0.91-0.85-1.36-1.27c-0.42-0.39-0.85-0.79-1.28-1.18c-0.02-0.02-0.04-0.04-0.05-0.08
			c-0.01-0.05-0.05-0.09-0.08-0.14c-0.01-0.01-0.01-0.03-0.01-0.06c0-0.01,0-0.03,0.01-0.04c0.05-0.17,0.38-0.26,0.38-0.26
			c0.01,0,0.29-0.18,0.86-0.53c0.46-0.28,0.69-0.43,0.82-0.52c0.14-0.1,0.3-0.17,0.44-0.28c0,0,0.07-0.06,0.21-0.11
			c0.02-0.01,0.04-0.01,0.07-0.01c0.02,0,0.04,0.01,0.06,0.02c0.13,0.08,0.19,0.28,0.19,0.28c0.12,0.36,0.15,0.29,0.29,0.76
			c0.06,0.21,0.11,0.42,0.15,0.64c0.02,0.11,0.03,0.22,0.05,0.33c0,0.02,0,0.04,0.01,0.06c0.01,0.21,0.02,0.3,0.02,0.34
			C14.32,8.46,14.32,8.48,14.32,8.5z"/>
		<path class="st4" d="M8.52,3.72C8.54,3.7,8.56,3.69,8.58,3.68C9.01,3.4,9.47,3.19,9.96,3.04c0.15-0.05,0.31-0.09,0.47-0.12
			c0.12-0.03,0.25-0.05,0.37-0.06c0.17-0.03,0.35-0.03,0.53-0.05c0.12-0.01,0.24-0.01,0.36,0c0.06,0,0.12,0.01,0.18,0.01
			c0.08,0,0.15,0.01,0.23,0.02c0.08,0.01,0.17,0.02,0.25,0.04c0.12,0.02,0.25,0.05,0.37,0.08c0.13,0.03,0.26,0.07,0.39,0.12
			c0.02,0.01,0.05,0.02,0.07,0.03c0.21,0.09,0.42,0.19,0.62,0.3c0.25,0.13,0.48,0.29,0.7,0.47c0.2,0.16,0.38,0.35,0.55,0.55
			c0.29,0.36,0.49,0.79,0.61,1.24c0.03,0.12,0.05,0.24,0.08,0.36c0,0.02,0,0.06,0.01,0.1c0.01,0.15,0.01,0.22,0,0.23
			c-0.01,0-0.05-0.18-0.06-0.23c-0.14-0.69-0.54-1.3-0.56-1.34c-0.13-0.2-0.25-0.34-0.36-0.45c-0.33-0.37-0.72-0.67-1.15-0.89
			c-0.29-0.15-0.59-0.26-0.9-0.33c-0.16-0.04-0.32-0.07-0.47-0.1c-0.14-0.02-0.28-0.03-0.42-0.05c-0.04,0-0.07-0.01-0.11-0.01
			c-0.17,0-0.33,0-0.5,0c-0.04,0-0.08,0-0.12,0.01c-0.09,0.01-0.17,0.02-0.26,0.02c-0.01,0-0.07,0.01-0.13,0.02
			c-0.17,0.03-0.28,0.06-0.42,0.1c-0.21,0.05-0.23,0.05-0.35,0.08C9.44,3.33,9.02,3.61,8.82,3.67c-0.01,0-0.09,0.03-0.19,0.07
			C8.61,3.75,8.59,3.76,8.58,3.77C8.06,4.13,7.9,4.23,7.89,4.22C7.89,4.21,8.21,3.95,8.52,3.72z"/>
		<path class="st5" d="M5.18,17.03c-0.06,0.03-0.12,0.05-0.15,0.07c-0.13,0.06-0.23,0.1-0.3,0.13c-0.27,0.12-0.35,0.14-0.49,0.22
			c-0.03,0.01-0.1,0.05-0.2,0.1c-0.07,0.03-0.11,0.06-0.13,0.06c-0.24,0.12-1.11,0.59-1.22,0.65c-0.03,0.02-0.06,0.02-0.09,0.04
			c-0.01,0.01-0.02,0.01-0.03,0.01c-0.01,0-0.01-0.02-0.01-0.03c0-0.02,0.02-0.04,0.05-0.05c0,0,0.11-0.07,0.17-0.11
			c0.01-0.01,0.01-0.01,0.03-0.02c0.08-0.04,0.15-0.09,0.22-0.14c0.05-0.03,0.1-0.07,0.15-0.1c0.02-0.01,0.03-0.02,0.05-0.04
			c0.03-0.03,0.06-0.04,0.07-0.06c0.04-0.04,0.03-0.04,0.1-0.12c0.03-0.03,0.05-0.06,0.08-0.09c0.02-0.02,0.04-0.03,0.06-0.05
			c0.06-0.03,0.13-0.06,0.19-0.1c0.02-0.01,0.03-0.02,0.05-0.01c0.02,0,0.03,0.01,0.04,0.02c0.01,0.01,0.01,0.02,0.02,0.02
			c0.01,0,0-0.04,0-0.06c0-0.04,0.01-0.08,0.02-0.12c0.02-0.05,0.05-0.09,0.11-0.16c0-0.01,0.01-0.01,0.02-0.02
			c0.06-0.08,0.14-0.12,0.22-0.16c0.01,0,0.02-0.01,0.04,0c0.01,0,0.03,0,0.04,0.01c0.04,0.01,0.03,0.06,0.08,0.1
			c0.01,0.01,0.03,0.03,0.04,0.02c0.01-0.01,0-0.02,0-0.03c-0.02-0.1-0.05-0.16-0.05-0.23c0-0.02,0.01-0.04,0.01-0.06
			c0.01-0.03,0.02-0.06,0.03-0.09c0-0.01,0.01-0.02,0.01-0.03c0.03-0.04,0.06-0.07,0.1-0.1c0.04-0.02,0.07-0.04,0.11-0.05
			c0.02-0.01,0.05-0.01,0.07,0.01c0.04,0.04,0.09,0.05,0.14,0.07c0.02,0.01,0.04,0.01,0.06,0.02c0.03,0.01,0.05,0.04,0.05,0.07
			c0,0.02,0,0.03,0,0.05c0.01,0.06,0.04,0.12,0.08,0.16c0.03,0.03,0.06,0.04,0.09,0.05c0.01,0,0.02-0.01,0.02-0.02
			c0-0.01-0.04-0.01-0.08-0.03C5.04,16.8,5.02,16.76,5,16.67c-0.01-0.03-0.01-0.05,0-0.07c0.01-0.01,0.02-0.02,0.03-0.02
			c0.06-0.02,0.05-0.03,0.1-0.04c0.04-0.01,0.07-0.02,0.13-0.02c0.08-0.01,0.13,0,0.14-0.03c0-0.01,0-0.02,0-0.02
			c-0.01-0.02-0.07,0.01-0.15,0.01c-0.02,0-0.07-0.01-0.17-0.02c-0.06-0.01-0.1-0.02-0.14-0.02c-0.03-0.01-0.05-0.02-0.08-0.03
			c-0.09-0.05-0.11-0.15-0.12-0.17c-0.01-0.04-0.01-0.09,0-0.13c0.02-0.07,0.05-0.12,0.08-0.15c0.01-0.01,0.02-0.02,0.03-0.04
			c0.07-0.05,0.14-0.1,0.22-0.13c0.01,0,0.03,0,0.04,0.01c0.03,0.02,0.05,0.05,0.08,0.08c0.13,0.13,0.08,0.1,0.24,0.18
			c0.04,0.02,0.08,0.04,0.13,0.04c0.04,0.01,0.09,0.03,0.13,0.04c0.04,0.02,0.07,0.04,0.09,0.08c0.02,0.03,0.04,0.06,0.07,0.08
			c0.01,0.01,0.03,0.03,0.05,0.04c0.08,0.04,0.15,0.08,0.23,0.12c0.02,0.01,0.03,0.01,0.05,0.01c0.01,0,0.02,0,0.02-0.01
			c0-0.01-0.08-0.05-0.18-0.12c-0.08-0.06-0.11-0.1-0.12-0.12c-0.02-0.03-0.03-0.07-0.03-0.1c0-0.06,0.01-0.1,0.03-0.14
			s0.04-0.07,0.08-0.13c0.05-0.07,0.06-0.08,0.08-0.08c0.03,0,0.07,0.02,0.08,0.03c0.01,0.01,0.02,0.01,0.02,0.02
			c0.02,0.02,0.09,0.08,0.17,0.09c0.01,0,0.06,0,0.08-0.03c0.01-0.01,0.02-0.03,0.01-0.04c-0.01,0-0.02,0.02-0.05,0.03
			c-0.04,0.02-0.08,0-0.12-0.01c-0.06-0.02-0.08-0.06-0.14-0.12c-0.01-0.01-0.02-0.03-0.02-0.04c0-0.01,0-0.02,0.01-0.05
			c0.02-0.06,0.04-0.07,0.04-0.1c0-0.01,0-0.03-0.01-0.03c-0.01,0-0.02,0.03-0.04,0.07c-0.02,0.04-0.04,0.08-0.06,0.12
			c-0.05,0.08-0.1,0.04-0.17,0.12c-0.04,0.05-0.07,0.11-0.08,0.17c0,0.03-0.01,0.06-0.03,0.08c-0.02,0.02-0.05,0.01-0.07,0.01
			c-0.08-0.01-0.15-0.04-0.22-0.08c-0.07-0.05-0.14-0.11-0.18-0.18c-0.02-0.04-0.04-0.07-0.06-0.11c-0.02-0.05-0.04-0.09-0.05-0.14
			c-0.02-0.1-0.01-0.19,0-0.28c0-0.03,0.01-0.06,0.02-0.08c0.01-0.03,0.02-0.04,0.05-0.09c0.03-0.05,0.06-0.11,0.11-0.15
			c0.02-0.02,0.04-0.04,0.06-0.05c0.01-0.01,0.02-0.01,0.03-0.01c0.03-0.01,0.07-0.01,0.1,0c0.02,0.01,0.05,0.02,0.07,0.03
			c0.04,0.02,0.08,0.04,0.12,0.06c0.04,0.01,0.08,0.04,0.12,0.05c0.06,0.02,0.12,0.04,0.18,0.07c0.02,0.01,0.04,0.01,0.06,0.02
			c0.11,0.06,0.24,0.09,0.35,0.13c0.1,0.02,0.19,0.06,0.29,0.09c0.05,0.02,0.11,0.02,0.16,0.04c0.05,0,0.1,0.03,0.15,0.04
			s0.1,0.03,0.15,0.04c0.04,0.02,0.09,0.03,0.13,0.03c0.01,0,0.03,0.01,0.04,0.01c0.02,0.01,0.05,0.01,0.07,0.02
			c0.02,0,0.04,0,0.06,0.01c0.05,0.02,0.11,0.02,0.16,0.04c0.02,0.01,0.04,0.01,0.06,0.01c0.02,0,0.04,0,0.06,0.01
			c0.04,0.01,0.08,0.02,0.12,0.02c0.02,0,0.04,0,0.06,0.01c0.05,0.02,0.1,0.02,0.15,0.02c0.04,0,0.08-0.01,0.12,0.01
			c0.05,0.02,0.11,0.02,0.16,0.02c0.04,0,0.08,0.01,0.12,0.01c0.01,0,0.04-0.01,0.05,0.01c0.01,0.01,0.01,0.03,0.01,0.04
			c-0.01,0.06-0.18,0.07-0.22,0.07c-0.02,0-0.19,0.06-0.52,0.17c-0.2,0.07-0.59,0.2-1.06,0.39c-0.01,0.01,0,0-0.52,0.22
			c-0.38,0.16-0.43,0.18-0.54,0.23C5.48,16.89,5.27,16.99,5.18,17.03z"/>
		<path class="st6" d="M9.6,1.63l0.07,0.16c-0.01,0-0.02,0-0.04,0c0,0-0.02,0-0.04,0C9.54,1.8,9.17,1.88,9.07,1.9
			C9.04,1.9,9,1.91,8.95,1.92C8.87,1.93,8.76,1.96,8.63,1.99C8.48,2.02,8.34,2.06,8.26,2.08C7.92,2.17,7.62,2.29,7.43,2.37
			C7.07,2.52,6.88,2.59,6.71,2.69c-0.59,0.35-0.89,0.52-0.9,0.53c0,0-0.09,0.08-0.12,0.05c0,0-0.01-0.01-0.01-0.02L5.68,3.25
			C5.53,2.98,5.42,2.93,5.42,2.93C5.4,2.92,5.37,2.9,5.33,2.87C5.32,2.86,5.31,2.85,5.3,2.83c-0.01-0.01-0.01-0.02,0-0.03
			C5.3,2.79,5.31,2.78,5.32,2.76C5.36,2.72,5.4,2.67,5.45,2.64C5.54,2.57,5.63,2.5,5.72,2.45C5.81,2.39,5.9,2.34,6,2.29
			c0.38-0.2,0.76-0.37,1.16-0.51c0.28-0.1,0.57-0.2,0.85-0.28c0.15-0.04,0.3-0.08,0.46-0.12C8.6,1.35,8.74,1.33,8.87,1.3
			c0.08-0.02,0.16-0.03,0.24-0.04C9.21,1.25,9.3,1.24,9.4,1.23c0.02,0,0.03,0,0.05,0c0.03,0,0.06,0.02,0.07,0.05
			c0.02,0.08,0.04,0.16,0.06,0.23C9.58,1.56,9.59,1.6,9.6,1.63z"/>
		<path class="st6" d="M8.94,1.16c0,0-0.02,0.02-0.03,0.03C8.87,1.2,8.82,1.21,8.78,1.22C8.6,1.24,8.43,1.29,8.26,1.33
			C8.09,1.37,7.92,1.42,7.74,1.47C7.3,1.61,6.86,1.77,6.43,1.96C6.29,2.03,6.14,2.09,6,2.17C5.87,2.24,5.74,2.31,5.62,2.39
			C5.6,2.41,5.58,2.42,5.56,2.42C5.54,2.44,5.51,2.43,5.49,2.41c-0.1-0.1-0.2-0.2-0.29-0.3c-0.01-0.01-0.01-0.03,0-0.04
			C5.2,2.06,5.21,2.05,5.22,2.04C5.25,2.02,5.27,2,5.3,1.97c0.17-0.12,0.34-0.23,0.52-0.33C6.11,1.48,6.4,1.34,6.7,1.21
			C7.09,1.04,7.49,0.9,7.9,0.78c0.21-0.06,0.43-0.11,0.65-0.16C8.6,0.61,8.66,0.6,8.72,0.59c0.02,0,0.05,0.02,0.06,0.04
			c0.06,0.17,0.11,0.33,0.15,0.51C8.94,1.14,8.94,1.15,8.94,1.16z"/>
		<path class="st7" d="M4.12,11.74c0.02,0.01,0.03,0.03,0.05,0.04c0.02,0.02,0.04,0.04,0.05,0.06c0.03,0.05,0.36,0.48,0.88,0.92
			c0.3,0.26,0.62,0.49,0.95,0.7c0.06,0.04,0.11,0.07,0.17,0.1c0.37,0.2,0.76,0.37,1.15,0.51c0.32,0.11,0.64,0.21,0.97,0.28
			c0.16,0.04,0.32,0.07,0.49,0.1c0.1,0.02,0.21,0.04,0.31,0.04c0.14,0.03,0.28,0.03,0.42,0.05c0.02,0,0.04,0,0.06,0
			c0.18,0.01,0.36,0.02,0.54,0.02c0.1,0,0.19,0,0.29,0c0.13,0,0.26-0.01,0.39-0.02c0.02,0,0.04,0,0.06,0c0.01,0,0.03,0.01,0.04,0.01
			c0.04,0.02,0.07,0.06,0.12,0.11c0.03,0.03,0.12,0.11,0.13,0.14c0,0.01,0.01,0.02,0.01,0.03c0,0.01,0,0.01,0,0.01
			c0,0-0.01,0.01-0.01,0.01c-0.06,0.02-0.13,0.03-0.19,0.03c-0.03,0-0.07,0.01-0.1,0.02c-0.01,0-0.02,0-0.03,0.01
			c-0.14,0.01-0.28,0.04-0.42,0.04c-0.05,0-0.1,0-0.15,0.01C10.14,14.99,10,15,9.85,15c-0.13,0-0.25,0-0.38,0
			c-0.05,0-0.08-0.04-0.08-0.04c-0.02-0.01-0.05-0.04-0.11-0.11c-0.03-0.04-0.13-0.18-0.16-0.21c-0.01-0.01-0.02-0.02-0.04-0.03
			c0,0-0.01,0-0.01-0.01c0,0.01-0.01,0.02-0.01,0.03c0.01,0.06,0.04,0.12,0.06,0.18c0.02,0.04,0.04,0.08,0.06,0.13
			c0,0.02-0.01,0.04-0.03,0.04c0,0,0,0,0,0c-0.01,0-0.01,0-0.02,0c-0.08,0-0.16-0.01-0.24-0.01c-0.11-0.01-0.22-0.02-0.33-0.04
			c-0.12-0.02-0.25-0.04-0.37-0.06c-0.17-0.03-0.34-0.07-0.5-0.11c-0.1-0.03-0.2-0.05-0.29-0.08c0,0-0.01-0.01-0.02-0.01
			c-0.04-0.02-0.06-0.01-0.07-0.02c-0.01-0.01-0.01-0.03-0.02-0.06c0-0.01-0.01-0.05-0.04-0.11c-0.03-0.08-0.09-0.24-0.15-0.26
			c-0.01,0-0.02-0.01-0.03-0.02c-0.01-0.02,0-0.05-0.01-0.05s-0.01,0.01-0.01,0.03c0,0.02,0,0.04,0.01,0.06
			c0.01,0.08,0.03,0.16,0.05,0.23c0.01,0.02,0.01,0.04,0.01,0.06c0.01,0.03-0.02,0.06-0.04,0.05c-0.01,0-0.02,0-0.03-0.01
			c-0.02-0.01-0.05-0.02-0.07-0.02c-0.54-0.19-1.06-0.44-1.55-0.77c0,0-0.02-0.01-0.04-0.03c-0.03-0.02-0.04-0.02-0.05-0.03
			c-0.01-0.01-0.01-0.02-0.01-0.08s0-0.07,0-0.08c0-0.03,0.01-0.05,0.02-0.07s0-0.03,0-0.15c0-0.08,0-0.12,0.01-0.14
			c0-0.01,0.01-0.02,0.01-0.03c0-0.02,0-0.05,0-0.05c-0.01,0-0.02,0.05-0.03,0.09c-0.02,0.09-0.04,0.17-0.07,0.26
			c-0.01,0.05-0.02,0.09-0.04,0.14c-0.01,0.02-0.04,0.02-0.05,0.02c-0.05,0-0.09-0.04-0.1-0.05c-0.08-0.08-1.11-0.92-1.13-1.06
			c0-0.02-0.01-0.03-0.01-0.05c-0.01-0.04-0.02-0.06-0.03-0.08c-0.01-0.03,0-0.06,0.01-0.09c0.05-0.15,0.14-0.28,0.17-0.45
			C4.12,11.8,4.12,11.77,4.12,11.74z"/>
		<path class="st8" d="M10.62,3.65c-0.07,0-0.17,0-0.29,0c-0.23,0.01-0.42,0.03-0.52,0.04C9.61,3.71,9.4,3.75,9.26,3.76
			c-0.04,0-0.08,0-0.15,0.01c0,0-0.1,0.01-0.1,0.01c0,0,0.05,0,0.09-0.03c0,0,0,0,0.01-0.01C9.13,3.73,9.15,3.71,9.18,3.7
			c0.12-0.05,0.23-0.1,0.35-0.15c0.11-0.04,0.23-0.08,0.34-0.12c0.09-0.03,0.18-0.05,0.28-0.08c0.07-0.02,0.14-0.03,0.2-0.05
			c0.02-0.01,0.04-0.01,0.06-0.01c0.03,0,0.06-0.01,0.09-0.02c0.02-0.01,0.04-0.01,0.06-0.01c0.05,0,0.09-0.01,0.13-0.02
			c0.03-0.01,0.06-0.01,0.09-0.01c0.05,0,0.1,0,0.15-0.02c0.03-0.01,0.06-0.01,0.09-0.01c0.1,0,0.19,0,0.29-0.01
			c0.05,0,0.09,0,0.13-0.02c0.04-0.01,0.09-0.01,0.13,0c0.03,0.01,0.07,0.01,0.1,0.01c0.1,0,0.19,0,0.29,0.01
			c0.03,0,0.05,0,0.07,0.01c0.05,0.02,0.1,0.02,0.15,0.02c0.05,0,0.09,0,0.13,0.02c0.01,0,0.02,0.01,0.03,0.01
			c0.06,0,0.12,0.01,0.18,0.03c0.05,0,0.1,0.02,0.15,0.03c0.05,0.01,0.09,0.02,0.13,0.04c0.05,0.01,0.1,0.03,0.15,0.04
			c0.06,0.02,0.12,0.04,0.17,0.06c0.08,0.04,0.17,0.07,0.25,0.11c0.03,0.01,0.05,0.03,0.08,0.04c0.04,0.02,0.08,0.04,0.12,0.06
			c0.02,0.01,0.04,0.02,0.05,0.03c0.09,0.06,0.19,0.11,0.29,0.18c0.1,0.07,0.21,0.15,0.31,0.23c0.03,0.03,0.06,0.06,0.09,0.08
			c0.14,0.1,0.24,0.24,0.36,0.36c0.01,0.01,0.01,0.02,0.02,0.02c0.04,0.06,0.09,0.11,0.13,0.17c0.03,0.05,0.07,0.09,0.1,0.14
			c0.08,0.12,0.15,0.24,0.21,0.37c0.13,0.27,0.15,0.34,0.24,0.62c0.02,0.08,0.04,0.16,0.06,0.25c0.01,0.03,0.01,0.06,0.02,0.09
			c0.01,0.04,0.01,0.07,0.01,0.11c0,0.01-0.01,0.02-0.01,0.03c-0.01,0.02-0.05,0.03-0.07,0.02c-0.01-0.01-0.03-0.02-0.04-0.02
			c-0.1-0.07-0.21-0.14-0.32-0.21c-0.04-0.03-0.09-0.05-0.13-0.08c-0.03-0.02-0.05-0.04-0.06-0.07c-0.01-0.02-0.02-0.04-0.03-0.06
			c-0.04-0.12-0.09-0.22-0.15-0.33c-0.06-0.13-0.14-0.25-0.22-0.36c-0.1-0.14-0.18-0.23-0.32-0.38c-0.02-0.02-0.05-0.06-0.1-0.1
			c-0.06-0.05-0.1-0.09-0.13-0.11c-0.17-0.14-0.26-0.2-0.36-0.27c-0.15-0.1-0.3-0.18-0.45-0.25c-0.13-0.06-0.27-0.12-0.41-0.16
			c-0.04-0.01-0.08-0.03-0.11-0.04c-0.09-0.03-0.14-0.05-0.16-0.05c-0.04-0.01-0.1-0.03-0.31-0.07c-0.17-0.04-0.28-0.06-0.43-0.08
			c-0.14-0.02-0.25-0.03-0.31-0.04c-0.1-0.01-0.25-0.03-0.43-0.03C10.81,3.64,10.7,3.64,10.62,3.65z"/>
		<path class="st9" d="M10.61,8.47c0.01,0.01,0.02,0.02,0.04,0.04c0.02,0.01,0.03,0.03,0.04,0.04c0.47,0.55,0.94,1.11,1.41,1.67
			c0.31,0.36,0.61,0.72,0.92,1.08c0.3,0.36,0.6,0.71,0.91,1.07c0.32,0.37,0.63,0.75,0.95,1.12c0.3,0.36,0.6,0.71,0.91,1.07
			c0.22,0.26,0.44,0.52,0.67,0.78c0.32,0.38,0.64,0.76,0.97,1.14c0.02,0.02,0.03,0.04,0.05,0.06c0.01,0.01,0,0.04-0.01,0.04
			c-0.03,0.03-0.07,0.06-0.11,0.08c-0.1,0.07-0.21,0.13-0.32,0.18c-0.01,0-0.02,0-0.03,0c-0.01,0-0.02,0-0.03-0.01
			c-0.01-0.01-0.02-0.01-0.02-0.02c-0.26-0.35-0.53-0.68-0.79-1.03c-0.57-0.74-1.14-1.47-1.71-2.21c-0.44-0.56-0.87-1.13-1.31-1.69
			c-0.57-0.73-1.13-1.47-1.7-2.2C11.15,9.34,10.88,9,10.61,8.66c0-0.01-0.04-0.03-0.06-0.08c-0.01-0.02-0.01-0.05,0-0.07
			C10.57,8.49,10.58,8.48,10.61,8.47z"/>
		<path class="st9" d="M10.9,7.99c0.02,0.02,0.05,0.04,0.07,0.05c0.29,0.21,0.58,0.41,0.87,0.59c0.37,0.24,0.75,0.46,1.14,0.65
			c0.2,0.1,0.42,0.19,0.63,0.26c0.09,0.03,0.18,0.05,0.28,0.07c0.03,0.01,0.07,0.01,0.1,0.01c0.15,0.02,0.03,0.01,0.09,0.01
			c0.04,0.01,0.06,0.01,0.06,0.02s-0.01,0.02-0.03,0.04c-0.02,0.02-0.02,0.05-0.02,0.06c-0.05,0.16-0.12,0.32-0.21,0.46
			c-0.06,0.11-0.14,0.21-0.22,0.3c-0.01,0.01-0.01,0.01-0.02,0.02c-0.02,0.02-0.05,0.02-0.07,0.01c-0.01-0.01-0.02-0.02-0.04-0.03
			c-0.26-0.25-0.53-0.49-0.79-0.74c-0.53-0.5-1.06-0.99-1.6-1.48c-0.1-0.09-0.19-0.17-0.28-0.26c-0.01-0.01-0.01-0.02-0.02-0.03
			c0-0.01,0-0.01,0-0.01c0-0.01-0.01-0.02-0.01-0.02C10.86,7.96,10.9,7.99,10.9,7.99z"/>
		<path class="st7" d="M2.71,9.21c0,0,0-0.03,0-0.16c0-0.04,0-0.07,0.02-0.1c0.01-0.02,0.03-0.04,0.07-0.06
			c0.04-0.03,0.08-0.05,0.12-0.07c0.06-0.03,0.07-0.03,0.08-0.05C3,8.75,3.01,8.73,3.03,8.72c0.01,0,0.01-0.01,0.02-0.01
			C3.06,8.7,3.06,8.69,3.06,8.69c0-0.01-0.02-0.02-0.02-0.02C2.96,8.69,2.89,8.72,2.81,8.75C2.79,8.76,2.77,8.76,2.75,8.77
			c-0.02,0-0.04-0.02-0.04-0.03c0-0.08,0-0.16,0.01-0.24c0-0.04,0.01-0.08,0.01-0.13c0.01-0.11,0.02-0.22,0.04-0.33
			c0.01-0.1,0.07-0.51,0.11-0.65C2.9,7.34,2.92,7.31,2.94,7.27c0.02-0.03,0.02-0.05,0.04-0.06c0.03-0.03,0.07-0.03,0.09-0.03
			c0.05,0,0.14-0.02,0.29-0.07l0.07-0.02C3.41,7.12,3.4,7.15,3.39,7.19c0,0.01,0,0.01,0,0.01c-0.04,0.14-0.07,0.28-0.1,0.42
			c-0.03,0.17-0.06,0.33-0.08,0.5C3.19,8.31,3.18,8.5,3.17,8.69c0,0.06,0,0.13,0,0.19C3.18,9.02,3.18,9.16,3.19,9.3
			C3.2,9.4,3.22,9.51,3.23,9.62c0.05,0.31,0.1,0.53,0.13,0.61c0.01,0.02,0.01,0.04,0.01,0.06c-0.01,0.03-0.04,0.04-0.05,0.05
			c-0.07,0.04-0.26,0.16-0.31,0.22C3.01,10.56,3,10.56,2.98,10.57c-0.01,0.01-0.03,0-0.04-0.02c-0.01-0.01-0.02-0.03-0.02-0.04
			C2.87,10.35,2.83,10.18,2.8,10C2.78,9.9,2.76,9.79,2.75,9.69C2.73,9.53,2.71,9.37,2.71,9.21z"/>
		<path class="st7" d="M4.13,11.76c-0.01,0.02-0.03,0.03-0.05,0.04c-0.02,0.02-0.03,0.04-0.05,0.06c-0.05,0.08-0.1,0.16-0.15,0.24
			c-0.02,0.03-0.04,0.06-0.05,0.1c-0.01,0.02-0.05,0.03-0.06,0.01c-0.01-0.01-0.01-0.02-0.02-0.02c-0.27-0.38-0.49-0.78-0.67-1.21
			c-0.02-0.04-0.03-0.08-0.04-0.12c0-0.01,0-0.01-0.01-0.05c-0.01-0.04-0.01-0.06-0.01-0.07c0-0.01,0.01-0.02,0.02-0.02
			c0.03-0.02,0.07-0.07,0.16-0.17c0.11-0.12,0.15-0.24,0.17-0.23c0.01,0,0,0.01,0.03,0.05c0.01,0.02,0.02,0.04,0.02,0.04
			c0.08,0.24,0.18,0.47,0.3,0.7c0.09,0.18,0.2,0.35,0.31,0.51c0.01,0.01,0.06,0.05,0.08,0.12C4.12,11.75,4.12,11.76,4.13,11.76z"/>
		<path class="st10" d="M14.35,6c0.02,0.01,0.04,0.03,0.06,0.05c0,0,0.03,0.03,0.05,0.05c0.28,0.32,0.52,0.68,0.52,0.68
			c0.22,0.31,0.43,0.64,0.63,0.98c0.12,0.21,0.23,0.44,0.33,0.66c0.09,0.21,0.17,0.43,0.23,0.66c0.03,0.13,0.05,0.26,0.07,0.39
			c0.01,0.07,0.01,0.15,0,0.22c0,0.01,0,0.01,0,0.01c0,0.01-0.01,0.02-0.02,0.02c-0.01,0-0.02,0-0.03-0.01
			c-0.01-0.02-0.02-0.04-0.03-0.06c-0.05-0.13-0.1-0.27-0.15-0.4c-0.1-0.28-0.22-0.55-0.35-0.82c-0.03-0.05-0.05-0.1-0.07-0.16
			c-0.04-0.11-0.1-0.22-0.15-0.33c-0.11-0.21-0.22-0.41-0.33-0.61c-0.09-0.16-0.17-0.31-0.25-0.48c-0.07-0.16-0.16-0.31-0.25-0.45
			c-0.06-0.1-0.13-0.2-0.2-0.3c-0.01-0.02-0.02-0.04-0.03-0.05c0,0,0,0,0-0.01c0-0.02-0.02-0.04-0.06-0.09L14.35,6z"/>
		<path class="st11" d="M11.53,14.8c-0.06,0-0.09-0.01-0.12-0.03c-0.01-0.01-0.02-0.01-0.03-0.01c-0.52-0.29-0.26-0.16-0.31-0.18
			c-0.01-0.01-0.06-0.03-0.06-0.04c0,0,0.02,0,0.06-0.01c0.01,0,0.02,0,0.02,0c0.04-0.01,0.14-0.02,0.25-0.04
			c0.02,0,0.06-0.01,0.1-0.01c0.09-0.02,0.19-0.03,0.28-0.05c0.12-0.02,0.24-0.05,0.35-0.07c0.19-0.04,0.38-0.09,0.57-0.15
			c0.01,0,0.02-0.01,0.03-0.01c0.04-0.01,0.07-0.02,0.11-0.01c0.01,0,0.01,0.01,0.04,0.02c0.08,0.04,0.12,0.04,0.13,0.07
			c0,0.01,0,0.03,0.01,0.04c0.01,0.01,0.01,0.02,0.01,0.03c0,0.01-0.01,0.02-0.02,0.03c-0.03,0.01-0.06,0.03-0.1,0.04
			c-0.08,0.03-0.16,0.06-0.24,0.09c-0.31,0.1-0.62,0.2-0.94,0.27c-0.02,0.01-0.05,0.02-0.07,0.02C11.56,14.79,11.53,14.8,11.53,14.8
			z"/>
		<path class="st12" d="M6.99,2.53C6.97,2.54,6.95,2.55,6.92,2.57C6.87,2.59,6.84,2.61,6.82,2.62C6.78,2.64,5.77,3.2,5.74,3.23
			C5.72,3.25,5.72,3.25,5.72,3.25C5.71,3.27,5.7,3.27,5.7,3.27c-0.01,0-0.01-0.02-0.02-0.03c0,0-0.01-0.02-0.04-0.06
			c-0.1-0.15-0.15-0.23-0.22-0.26c0,0-0.05-0.03-0.1-0.07C5.31,2.85,5.3,2.84,5.3,2.83c-0.01-0.01-0.01-0.02,0-0.03
			c0.01-0.02,0.02-0.04,0.04-0.05c0.09-0.1,0.2-0.18,0.31-0.25c0.01-0.01,0.03-0.01,0.04,0c0.04,0.04,0.09,0.07,0.14,0.09
			c0.06,0.02,0.12,0.05,0.19,0.05c0.04,0,0.17,0.02,0.54-0.02c0.12-0.01,0.22-0.03,0.33-0.06C6.93,2.55,6.97,2.54,6.99,2.53z"/>
		<path class="st11" d="M3.86,5.59c0.01,0,0.09-0.03,0.11,0c0.01,0.01,0,0.03-0.01,0.06C3.93,5.72,3.91,5.74,3.9,5.77
			C3.73,6.12,3.59,6.49,3.48,6.86c0,0.01,0,0.01,0,0.02c-0.04,0.1-0.02,0.11-0.13,0.11c-0.05,0-0.1,0.01-0.15,0.02
			C3.15,7.02,3.11,7.03,3.07,7.02c-0.02,0-0.03-0.01-0.03-0.03c0,0,0-0.01,0-0.01c0-0.01,0-0.02,0.01-0.03
			C3.1,6.8,3.16,6.65,3.22,6.51C3.33,6.26,3.46,6.02,3.6,5.78c0.02-0.03,0.03-0.05,0.05-0.08c0.01-0.01,0.02-0.02,0.03-0.03
			C3.71,5.65,3.73,5.62,3.77,5.6C3.8,5.59,3.83,5.59,3.86,5.59z"/>
		<path class="st13" d="M5.54,1.78c0.02-0.01,0.03,0,0.04,0c0.01,0,0.01,0.01,0.01,0.02C5.6,1.81,5.61,1.82,5.61,1.83
			C5.68,1.93,5.78,1.98,5.89,2c0.09,0.02,0.18,0.02,0.27,0.01C6.2,2.01,6.24,2,6.28,2C6.32,2,6.35,2,6.35,2c0,0-0.03,0.01-0.07,0.03
			c-0.02,0.01-0.04,0.02-0.1,0.05C6,2.16,5.81,2.26,5.64,2.38C5.61,2.4,5.58,2.42,5.55,2.43c-0.02,0.01-0.04,0-0.06-0.01
			c0,0-0.01-0.01-0.01-0.01c-0.1-0.1-0.19-0.2-0.29-0.3c-0.01-0.01-0.01-0.03,0-0.04c0.01-0.01,0.01-0.01,0.01-0.01
			c0.17-0.14,0.22-0.19,0.22-0.19S5.48,1.81,5.54,1.78z"/>
		<path class="st14" d="M14.2,13.74c0,0.01-0.01,0.02-0.02,0.03c-0.02,0.02-0.05,0.04-0.08,0.05c-0.17,0.1-0.35,0.19-0.52,0.28
			c-0.08,0.04-0.16,0.07-0.23,0.11c-0.03,0.01-0.07,0.03-0.1,0.04c-0.03,0.01-0.07,0.01-0.1,0c0,0-0.01,0-0.01-0.01
			c-0.02-0.01-0.04-0.01-0.06-0.02c-0.07-0.04-0.09-0.06-0.15-0.07c-0.01,0-0.03-0.01-0.03-0.01c0-0.01,0.01-0.01,0.03-0.02
			c0.02-0.01,0.03-0.02,0.04-0.02c0.3-0.1,0.59-0.22,0.87-0.35c0.09-0.04,0.17-0.08,0.26-0.13c0.02-0.01,0.04-0.01,0.06-0.01
			c0.03,0.01,0.06,0.04,0.06,0.08C14.21,13.72,14.21,13.73,14.2,13.74z"/>
		<path class="st15" d="M4.52,4.66C4.51,4.67,4.51,4.69,4.5,4.7C4.36,4.92,4.22,5.15,4.1,5.39C4.09,5.41,4.08,5.43,4.07,5.44
			C4.06,5.45,4.05,5.46,4.04,5.46c-0.05,0.01-0.11,0-0.16-0.01c-0.01,0-0.02-0.03-0.02-0.04c0-0.01,0-0.01,0-0.02
			c0.01-0.01,0.02-0.03,0.02-0.04c0.18-0.26,0.38-0.51,0.6-0.73c0.13-0.15,0.19-0.22,0.19-0.21S4.64,4.49,4.52,4.66z"/>
		<path class="st16" d="M15.32,8.37c0,0.02,0,0.04,0,0.06c0,0.02,0,0.03-0.01,0.05c-0.02,0.06-0.04,0.12-0.06,0.18
			c-0.03,0.08-0.06,0.17-0.1,0.25c-0.01,0.01-0.01,0.03-0.03,0.04c0,0-0.01,0.01-0.02,0c-0.02-0.01,0-0.08,0.01-0.1
			c0.05-0.2,0.06-0.48,0.06-0.52c0-0.1,0-0.14,0-0.14c0-0.05,0-0.11,0-0.16c0-0.01,0-0.02,0-0.03c0,0,0.01,0.01,0.01,0.01
			c0.01,0.01,0.01,0.01,0.01,0.02c0,0,0.01,0.01,0.01,0.01c0.03,0.06,0.06,0.12,0.09,0.18c0.01,0.01,0.01,0.02,0.01,0.04
			c0,0.01,0.01,0.03,0.01,0.04C15.32,8.32,15.32,8.35,15.32,8.37z"/>
		<path class="st17" d="M15.49,8.73c0.01-0.01,0.02,0,0.03,0.01c0,0,0,0,0,0c0.01,0.02,0.02,0.04,0.03,0.05
			c0.03,0.06,0.28,0.7,0.33,0.82c0.01,0.02,0.04,0.08,0.07,0.17c0.01,0.03,0.02,0.06,0.03,0.08c-0.02-0.02-0.03-0.03-0.05-0.05
			c-0.01-0.02-0.03-0.04-0.04-0.06c-0.17-0.29-0.43-0.81-0.45-0.85c0-0.01-0.01-0.02-0.01-0.03c0-0.01,0-0.02,0-0.03
			c0.01-0.04,0.02-0.08,0.05-0.11C15.48,8.74,15.49,8.73,15.49,8.73z"/>
		<path class="st18" d="M5.16,15.44c0-0.03,0-0.07,0.01-0.1c0.02-0.1,0.03-0.18,0.08-0.26c0.04-0.06,0.1-0.11,0.12-0.15
			c0-0.01,0.01-0.02,0.02-0.03c0.01-0.01,0.02-0.02,0.03-0.01c0,0,0,0.01-0.02,0.1C5.38,14.99,5.38,15,5.37,15.01
			c-0.02,0.05-0.04,0.1-0.05,0.15C5.3,15.22,5.3,15.28,5.3,15.35c0,0.01,0,0.02,0,0.03c0,0.1-0.01,0.19,0.02,0.28
			c0.03,0.09,0.06,0.18,0.1,0.26c0,0,0,0.01,0,0.01c-0.01,0.01-0.02,0.01-0.02,0c0,0,0,0,0,0c-0.05-0.04-0.09-0.08-0.13-0.13
			c-0.01-0.02-0.03-0.04-0.04-0.07c-0.02-0.04-0.03-0.09-0.04-0.14c-0.01-0.02,0-0.02-0.01-0.05C5.18,15.52,5.17,15.48,5.16,15.44z"
			/>
		<path class="st19" d="M4.86,16.36c0.01,0.02,0.02,0.03,0.03,0.04c0.01,0.01,0.01,0.02,0,0.02c0,0,0,0,0,0c0,0-0.01,0-0.01,0
			c-0.04-0.02-0.07-0.06-0.1-0.1c-0.02-0.04-0.04-0.08-0.04-0.14c0-0.02,0-0.03,0-0.05c0-0.01,0.01-0.07,0.04-0.13
			c0.02-0.03,0.04-0.06,0.08-0.1c0.03-0.04,0.06-0.07,0.07-0.06c0,0,0.01,0.01-0.01,0.08C4.88,15.98,4.87,16,4.85,16.04
			c-0.01,0.01-0.04,0.11-0.04,0.18c0,0.04,0.01,0.07,0.02,0.11C4.85,16.34,4.85,16.35,4.86,16.36z"/>
		<path class="st20" d="M5.87,16.12c0-0.03,0-0.05,0-0.08c0-0.01,0-0.02,0.01-0.03c0.02-0.07,0.04-0.13,0.08-0.19
			c0.02-0.03,0.03-0.03,0.03-0.03c0,0,0.01,0.01,0,0.08c-0.01,0.08-0.02,0.09-0.03,0.14c-0.01,0.05-0.01,0.11,0,0.16
			c0.01,0.04,0.01,0.08,0.02,0.12c0,0.01,0,0.02-0.01,0.02c0,0,0,0,0,0c0,0-0.01,0-0.01,0c-0.02-0.01-0.03-0.03-0.04-0.04
			c-0.02-0.02-0.03-0.04-0.04-0.07c0-0.01,0-0.02,0-0.03C5.87,16.15,5.87,16.14,5.87,16.12z"/>
		<path class="st10" d="M15.62,12.7c-0.08,0.09-0.16,0.17-0.25,0.25c-0.02,0.02-0.06,0.03-0.08,0.01c0,0-0.01,0-0.01-0.01
			c0,0,0-0.01,0-0.02c0,0,0-0.01,0.01-0.01c0.1-0.07,0.2-0.14,0.3-0.21C15.59,12.7,15.61,12.7,15.62,12.7L15.62,12.7z"/>
		<path class="st21" d="M15.62,12.7c0-0.01,0-0.02,0.01-0.02c0,0,0,0,0,0.01C15.62,12.69,15.62,12.69,15.62,12.7L15.62,12.7z"/>
		<path class="st22" d="M14.32,8.87c0,0,0,0.01,0,0.01C14.32,8.88,14.32,8.88,14.32,8.87z"/>
		<path class="st22" d="M13.94,6.58c-0.01-0.01-0.01-0.03-0.02-0.04c-0.02-0.05-0.05-0.1-0.07-0.15
			C13.88,6.46,13.91,6.52,13.94,6.58L13.94,6.58z"/>
		<path class="st22" d="M13.74,6.2c0.01,0.02,0.02,0.03,0.03,0.05C13.76,6.23,13.75,6.22,13.74,6.2z"/>
		<path class="st22" d="M13.73,6.18c0,0.01,0.01,0.01,0.01,0.02C13.74,6.19,13.73,6.19,13.73,6.18z"/>
		<path class="st22" d="M14.31,8.92L14.31,8.92L14.31,8.92z"/>
		<path class="st22" d="M13.79,6.29C13.79,6.29,13.79,6.3,13.79,6.29C13.79,6.3,13.79,6.29,13.79,6.29z"/>
		<path class="st22" d="M14.3,9.04c0,0,0,0.01,0,0.01C14.3,9.05,14.3,9.05,14.3,9.04z"/>
		<path class="st22" d="M14.31,9C14.31,9,14.31,9,14.31,9C14.31,9,14.31,9,14.31,9z"/>
		<path class="st22" d="M14.08,9.92c0,0.01-0.01,0.01-0.01,0.02C14.07,9.94,14.08,9.93,14.08,9.92z"/>
		<path class="st22" d="M14.04,10.01l-0.01,0.02L14.04,10.01z"/>
		<path class="st22" d="M14.06,9.97c0,0.01-0.01,0.01-0.01,0.02L14.06,9.97z"/>
		<path class="st22" d="M13.72,6.16l0.01,0.01L13.72,6.16z"/>
		<path class="st22" d="M14.28,9.21L14.28,9.21L14.28,9.21z"/>
		<path class="st22" d="M13.34,6.08l0.02-0.01L13.34,6.08z"/>
		<path class="st22" d="M13.37,6.07l0.01-0.01L13.37,6.07z"/>
		<path class="st22" d="M13.38,6.06l0.01-0.01L13.38,6.06z"/>
		<path class="st22" d="M13.41,6.04L13.41,6.04L13.41,6.04z"/>
		<path class="st22" d="M11.34,7.34l0.01-0.01L11.34,7.34z"/>
		<path class="st22" d="M11.27,7.38L11.27,7.38L11.27,7.38z"/>
		<path class="st22" d="M11.3,7.36L11.3,7.36L11.3,7.36z"/>
		<path class="st22" d="M13.42,6.04C13.42,6.03,13.42,6.03,13.42,6.04C13.42,6.03,13.42,6.03,13.42,6.04z"/>
		<path class="st22" d="M13.68,6.09L13.68,6.09L13.68,6.09z"/>
		<path class="st22" d="M13.69,6.11l0.01,0.01L13.69,6.11z"/>
		<path class="st22" d="M13.63,6.03L13.63,6.03L13.63,6.03z"/>
		<path class="st22" d="M13.7,6.12L13.7,6.12L13.7,6.12z"/>
		<path class="st22" d="M13.71,6.14c0,0.01,0.01,0.01,0.01,0.02C13.71,6.15,13.71,6.15,13.71,6.14z"/>
		<path class="st22" d="M13.67,6.08L13.67,6.08L13.67,6.08z"/>
		<path class="st22" d="M13.65,6.05L13.65,6.05L13.65,6.05z"/>
		<path class="st22" d="M13.65,6.06L13.65,6.06L13.65,6.06z"/>
		<path class="st22" d="M14.02,10.05c0,0.01-0.01,0.02-0.01,0.03C14.01,10.07,14.02,10.06,14.02,10.05z"/>
		<path class="st22" d="M13.95,10.2c0,0.01-0.01,0.02-0.01,0.02C13.94,10.21,13.94,10.2,13.95,10.2z"/>
		<path class="st22" d="M14.32,8.84L14.32,8.84c0.03-0.43,0.01-0.87-0.08-1.29l0,0c0.02,0.12,0.04,0.25,0.06,0.38
			C14.33,8.23,14.34,8.53,14.32,8.84z"/>
		<path class="st22" d="M13.9,10.28c-0.01,0.01-0.02,0.03-0.03,0.04C13.88,10.3,13.89,10.29,13.9,10.28z"/>
		<path class="st22" d="M13.92,10.24c-0.01,0.01-0.01,0.02-0.02,0.03C13.91,10.26,13.92,10.25,13.92,10.24z"/>
		<path class="st22" d="M13.86,10.33c-0.01,0.01-0.01,0.02-0.02,0.03C13.85,10.35,13.86,10.34,13.86,10.33z"/>
		<path class="st22" d="M14.09,9.9c0.05-0.13,0.09-0.26,0.13-0.39l0,0c-0.02,0.08-0.05,0.17-0.07,0.25
			C14.12,9.81,14.11,9.85,14.09,9.9z"/>
		<path class="st22" d="M13.77,10.44c-0.01,0.01-0.02,0.02-0.03,0.04C13.75,10.47,13.76,10.46,13.77,10.44z"/>
		<path class="st22" d="M11.87,8.96l-0.02-0.02L11.87,8.96z"/>
		<path class="st22" d="M11.8,8.9l-0.01-0.01L11.8,8.9z"/>
		<path class="st22" d="M13.83,10.37c-0.01,0.01-0.01,0.02-0.02,0.02C13.82,10.38,13.83,10.38,13.83,10.37z"/>
		<path class="st22" d="M13.8,10.41c-0.01,0.01-0.01,0.02-0.02,0.03C13.79,10.42,13.8,10.41,13.8,10.41z"/>
		<path class="st22" d="M13.97,10.15c0,0.01-0.01,0.02-0.01,0.03C13.96,10.17,13.97,10.16,13.97,10.15z"/>
		<path class="st22" d="M11.94,9.03l-0.02-0.02L11.94,9.03z"/>
		<path class="st22" d="M13.62,6.03c-0.05-0.06-0.09-0.06-0.17,0h0C13.52,5.99,13.57,5.98,13.62,6.03z"/>
		<path class="st22" d="M19.36,4.95c-0.03-0.02-0.06-0.03-0.1-0.03c-0.04,0.01-0.09,0.02-0.13,0.04c-0.05,0.02-0.1,0.05-0.14,0.09
			c-0.04,0.03-0.08,0.07-0.12,0.1c-0.14,0.13-0.28,0.26-0.41,0.4c-0.16,0.17-0.33,0.33-0.49,0.5c-0.04,0.04-0.08,0.08-0.12,0.12
			c-0.01,0.01-0.02,0.01-0.03,0.02c-0.01,0.01-0.04,0-0.05-0.02c-0.02-0.04-0.03-0.08-0.05-0.12c-0.1-0.29-0.23-0.57-0.38-0.83
			c-0.28-0.52-0.64-0.98-1.05-1.39c-0.41-0.4-0.86-0.75-1.35-1.04c-0.61-0.36-1.27-0.62-1.95-0.8c-0.15-0.04-0.3-0.08-0.46-0.11
			c-0.14-0.03-0.29-0.06-0.43-0.08C12,1.79,11.88,1.77,11.76,1.76c-0.02,0-0.03,0-0.05-0.01c-0.08-0.01-0.17-0.02-0.26-0.02
			c-0.05,0-0.1,0-0.15-0.01c-0.17-0.01-0.34-0.02-0.51-0.02c-0.12,0-0.24,0-0.36,0.01c-0.2,0.01-0.4,0.02-0.6,0.05
			c-0.01,0-0.01,0-0.02,0c-0.12,0-0.24,0.03-0.36,0.04C9.3,1.84,9.15,1.86,9,1.89C8.71,1.95,8.59,1.98,8.38,2.03
			C7.85,2.18,7.34,2.37,6.85,2.6C6.18,2.91,5.56,3.31,4.99,3.79C4.61,4.11,4.26,4.47,3.94,4.86C3.5,5.4,3.15,6,2.88,6.66
			C2.66,7.21,2.51,7.79,2.46,8.4c0,0.02,0,0.03-0.01,0.05C2.45,8.51,2.44,8.57,2.44,8.64C2.44,8.91,2.43,9.19,2.46,9.47
			C2.47,9.65,2.5,9.83,2.54,10c0.17,0.9,0.55,1.75,1.1,2.46c0.39,0.5,0.84,0.94,1.34,1.3c0.45,0.32,0.92,0.59,1.42,0.8
			c0.69,0.29,1.4,0.49,2.14,0.58c0.01,0,0.03,0,0.04,0.01c0.06,0.01,0.12,0.02,0.18,0.02c0.03,0,0.06,0,0.09,0.01
			c0.1,0.02,0.2,0.02,0.3,0.02c0.07,0,0.14,0.01,0.21,0.01c0.24,0.01,0.47,0.01,0.71,0c0.1-0.01,0.2-0.01,0.3-0.02
			c0.06,0,0.11-0.01,0.17-0.01c0.06-0.01,0.11-0.01,0.16-0.02c0.03,0,0.06,0,0.09-0.01c0.11-0.02,0.22-0.02,0.33-0.05
			c0.15-0.02,0.29-0.05,0.43-0.08c0.24-0.05,0.47-0.11,0.7-0.18c0.49-0.14,0.98-0.33,1.44-0.55c0.19-0.09,0.38-0.19,0.57-0.3
			c0.03-0.02,0.05-0.03,0.08-0.04c0.03-0.01,0.06-0.01,0.08,0.02c0.03,0.04,0.06,0.07,0.09,0.11c0.65,0.85,1.3,1.69,1.96,2.54
			c0.03,0.04,0.06,0.07,0.09,0.11c0.06,0.07,0.12,0.15,0.17,0.22c0.02,0.03,0.04,0.05,0.06,0.08c0.04,0.05,0.1,0.08,0.16,0.08
			c0.04,0,0.07,0,0.1-0.01c0.18-0.06,0.35-0.15,0.5-0.25c0.11-0.07,0.22-0.15,0.32-0.24c0.13-0.1,0.25-0.21,0.38-0.31
			c0.01-0.01,0.02-0.02,0.03-0.03c0.02-0.03,0.03-0.07,0.02-0.1c-0.01-0.02-0.02-0.04-0.03-0.05c-0.02-0.02-0.03-0.04-0.05-0.06
			c-0.08-0.08-0.16-0.16-0.24-0.25c-0.76-0.8-1.51-1.61-2.27-2.41c-0.05-0.05-0.1-0.11-0.15-0.16c-0.01-0.02-0.03-0.03-0.04-0.05
			c-0.01-0.02-0.01-0.04,0-0.06c0.02-0.02,0.04-0.04,0.06-0.05c0.07-0.07,0.15-0.13,0.22-0.2c0.42-0.39,0.81-0.84,1.13-1.32
			c0.47-0.7,0.81-1.47,1-2.31c0.05-0.23,0.09-0.47,0.11-0.71c0-0.03,0-0.06,0.01-0.1c0.01-0.07,0.01-0.14,0.01-0.21
			c0-0.13,0-0.27,0-0.4c0-0.09-0.01-0.17-0.02-0.25c0-0.03-0.01-0.06-0.01-0.09c-0.01-0.07,0-0.14,0.04-0.2
			c0.03-0.05,0.05-0.09,0.08-0.14c0.22-0.36,0.44-0.71,0.66-1.07c0.17-0.27,0.33-0.54,0.5-0.82c0.03-0.04,0.05-0.09,0.08-0.14
			c0.01-0.02,0.02-0.05,0.02-0.08C19.4,5.01,19.39,4.97,19.36,4.95z M15.8,13.88c0.68,0.73,1.36,1.45,2.04,2.18
			c0.02,0.02,0.04,0.05,0.06,0.07c0.01,0.01,0.01,0.02,0.01,0.03c0,0.01,0,0.01,0,0.02c-0.01,0.02-0.03,0.04-0.05,0.06
			c-0.11,0.1-0.22,0.2-0.34,0.29c-0.15,0.11-0.3,0.21-0.47,0.29c-0.01,0.01-0.03,0.01-0.04,0.02c-0.01,0.01-0.05,0-0.06-0.02
			c-0.13-0.18-0.27-0.36-0.41-0.53c-1.06-1.37-2.13-2.74-3.19-4.11c-0.65-0.84-1.29-1.67-1.94-2.51c-0.27-0.35-0.53-0.69-0.81-1.03
			c-0.02-0.02-0.04-0.05-0.05-0.08c0-0.02,0-0.03,0.01-0.04c0.03-0.02,0.06-0.04,0.09-0.06c0.01,0,0.02-0.01,0.03-0.01
			c0.03,0,0.05,0,0.07,0.02c0.07,0.09,0.14,0.16,0.22,0.24c0.74,0.79,1.48,1.58,2.22,2.38c0.07,0.07,0.13,0.15,0.2,0.22
			c0.02,0.03,0.05,0.05,0.07,0.08c0.06,0.05,0.12,0.12,0.17,0.18C14.36,12.34,15.08,13.11,15.8,13.88z M13.82,5.76
			c0.01,0.01,0.02,0.03,0.02,0.04c0.01,0.01,0.02,0.02,0.03,0.04c0.11,0.12,0.21,0.26,0.31,0.39c0.13,0.19,0.25,0.4,0.37,0.6
			c0.03,0.04,0.05,0.09,0.07,0.14c0.09,0.18,0.18,0.37,0.29,0.54c0.07,0.11,0.13,0.23,0.19,0.35c0.05,0.11,0.11,0.22,0.16,0.33
			c0.01,0.03,0.03,0.06,0.04,0.09c0.01,0.04,0.02,0.08,0.01,0.13c-0.01,0.04-0.02,0.08-0.04,0.12c-0.14,0.4-0.32,0.77-0.54,1.12
			c-0.3,0.47-0.65,0.88-1.06,1.24c-0.03,0.03-0.06,0.05-0.09,0.08c-0.01,0.01-0.02,0.02-0.04,0.03c-0.02,0.02-0.05,0.02-0.07,0
			c-0.03-0.03-0.06-0.06-0.09-0.09c-0.39-0.42-0.78-0.83-1.17-1.25c-0.37-0.4-0.74-0.79-1.12-1.19c-0.05-0.05-0.09-0.1-0.14-0.14
			c-0.08-0.08-0.07-0.06-0.07-0.18c0.04-0.02,0.07-0.02,0.09-0.01l0,0c-0.03-0.03-0.06-0.06-0.09-0.09
			c-0.01-0.02-0.03-0.04-0.03-0.07c-0.01-0.04-0.03-0.08-0.05-0.11c-0.03-0.04-0.04-0.08-0.03-0.13c0.02-0.02,0.04-0.04,0.06-0.05
			c-0.02,0.01-0.05,0.01-0.07,0.01c-0.02,0-0.04,0.01-0.06,0.01c-0.01,0-0.03,0-0.04-0.01c-0.03-0.02-0.06-0.04-0.09-0.05
			c-0.09-0.04-0.18-0.06-0.28-0.05c-0.09,0-0.17,0.02-0.25,0.05c-0.14,0.06-0.24,0.15-0.3,0.3C9.72,7.96,9.71,8,9.7,8.05
			c0,0.02,0,0.03,0,0.05c0,0.11,0.03,0.2,0.09,0.28c0.06,0.08,0.15,0.15,0.24,0.19c0.06,0.02,0.11,0.04,0.17,0.05
			c0.02,0,0.03,0,0.05,0c0.03,0,0.06,0.02,0.08,0.05c0.01,0.02,0.03,0.03,0.04,0.05c0.06,0.08,0.12,0.16,0.18,0.24
			c0.2,0.26,0.4,0.52,0.6,0.78c0.45,0.58,0.89,1.15,1.34,1.73c0.03,0.04,0.06,0.07,0.08,0.11c0.02,0.03,0.02,0.06-0.01,0.08
			c-0.01,0.01-0.02,0.01-0.03,0.02c0,0-0.01,0.01-0.01,0.01c-0.39,0.21-0.8,0.38-1.22,0.49c-0.17,0.05-0.34,0.08-0.52,0.12
			c-0.11,0.01-0.23,0.04-0.34,0.04c-0.27,0.04-0.54,0.03-0.81,0.02c-0.06,0-0.12-0.01-0.18-0.02c-0.03,0-0.06-0.01-0.09-0.01
			c-0.46-0.04-0.97-0.19-1.39-0.4c-0.28-0.14-0.54-0.31-0.78-0.51c-0.54-0.45-0.92-1.02-1.14-1.71C5.98,9.48,5.93,9.25,5.9,9.01
			c-0.03-0.25-0.03-0.5-0.02-0.75C5.9,8.12,5.91,7.98,5.93,7.83c0.02-0.15,0.05-0.26,0.08-0.41c0.08-0.33,0.2-0.66,0.35-0.96
			c0.24-0.5,0.55-0.95,0.92-1.35c0.48-0.52,1.04-0.95,1.65-1.27c0.39-0.2,0.79-0.36,1.21-0.47c0.18-0.05,0.35-0.08,0.53-0.12
			c0.12-0.01,0.24-0.04,0.36-0.04c0.02,0,0.04,0,0.06,0c0.18-0.02,0.35-0.02,0.53-0.02c0.07,0,0.13,0.01,0.2,0.01
			c0.06,0,0.11,0.01,0.17,0.01c0.06,0,0.11,0.01,0.16,0.02c0.08,0.01,0.17,0.03,0.25,0.04c0.67,0.13,1.29,0.41,1.82,0.86
			c0.35,0.3,0.64,0.66,0.86,1.08c0.14,0.27,0.24,0.56,0.32,0.86c0.02,0.07,0.03,0.13,0.04,0.2c0,0.01,0,0.02,0,0.03
			c0,0.02-0.03,0.04-0.05,0.03c-0.1-0.07-0.2-0.14-0.31-0.2c-0.17-0.11-0.35-0.21-0.52-0.32c-0.11-0.06-0.22-0.12-0.34-0.17
			c-0.06-0.02-0.11-0.04-0.17-0.06C14,5.57,13.93,5.57,13.87,5.61c-0.01,0.01-0.02,0.01-0.02,0.02C13.81,5.66,13.8,5.71,13.82,5.76z
			 M10.66,8.1c0,0.11-0.05,0.19-0.14,0.22c-0.07,0.02-0.14,0.04-0.2,0.03c-0.02,0-0.04,0-0.05,0c-0.09,0-0.18-0.05-0.24-0.12
			C10,8.2,9.98,8.15,9.98,8.09c0-0.07,0.02-0.14,0.08-0.18c0.06-0.06,0.14-0.09,0.22-0.1c0.03,0,0.05,0,0.08,0
			c0.09,0.01,0.17,0.04,0.23,0.11c0.04,0.04,0.07,0.1,0.08,0.17C10.66,8.09,10.66,8.1,10.66,8.1z M17.72,8.73
			c-0.07,0.51-0.2,1.01-0.39,1.49c-0.15,0.36-0.32,0.7-0.52,1.02c-0.01,0.02-0.02,0.04-0.03,0.05c-0.04,0.06-0.1,0.09-0.17,0.1
			c-0.05,0.01-0.11,0-0.17,0.01c-0.06,0-0.12,0-0.18,0.01c-0.09,0.01-0.17,0.02-0.25,0.04c0,0-0.01,0.01-0.01,0.01
			c0,0.01,0,0.01,0.01,0.01c0.01,0.01,0.02,0.02,0.04,0.02c0.09,0.02,0.19,0.05,0.28,0.05c0.07,0,0.14,0.01,0.21,0.02
			c0.02,0,0.03,0.03,0.02,0.05c0,0.01-0.01,0.02-0.01,0.03c-0.02,0.03-0.05,0.07-0.07,0.1c-0.11,0.14-0.22,0.28-0.34,0.41
			c-0.15,0.17-0.31,0.34-0.47,0.5c-0.09,0.09-0.18,0.18-0.28,0.27c-0.04,0.04-0.11,0.04-0.15,0.01c-0.02-0.01-0.04-0.03-0.06-0.05
			c-0.01-0.01-0.02-0.02-0.03-0.03c-0.21-0.26-0.44-0.5-0.66-0.75c-0.24-0.27-0.48-0.53-0.72-0.79c-0.01-0.02-0.03-0.03-0.04-0.05
			c-0.01-0.01-0.01-0.02-0.01-0.03c0-0.02,0.01-0.03,0.02-0.04c0.01-0.01,0.02-0.02,0.03-0.03c0.04-0.03,0.08-0.07,0.12-0.1
			c0.56-0.5,1.02-1.08,1.37-1.77c0.07-0.15,0.14-0.29,0.2-0.45c0.01-0.03,0.02-0.06,0.04-0.08c0.01-0.01,0.03-0.01,0.04,0
			c0.01,0.02,0.02,0.04,0.03,0.06c0.1,0.26,0.21,0.52,0.31,0.78c0.04,0.1,0.08,0.21,0.12,0.31c0.02,0.04,0.03,0.08,0.05,0.12
			c0.01,0.02,0.02,0.05,0.04,0.07c0.02,0.03,0.05,0.05,0.09,0.06c0.02,0.01,0.04,0.01,0.06,0c0.03-0.01,0.06-0.03,0.09-0.06
			c0.03-0.04,0.06-0.07,0.09-0.11c0.03-0.05,0.06-0.1,0.1-0.14c0.32-0.49,0.63-0.99,0.93-1.49c0.07-0.12,0.14-0.23,0.21-0.35
			c0.03-0.04,0.06-0.09,0.09-0.13c0.01-0.01,0.02-0.01,0.03-0.01c0.01,0,0.02,0.01,0.02,0.02c0,0.02,0,0.03,0,0.05
			c0,0.08,0,0.16,0,0.24C17.77,8.35,17.75,8.54,17.72,8.73z M18.59,5.83c0,0-0.01,0.03-0.02,0.04c-0.06,0.1-0.12,0.21-0.18,0.31
			c-0.33,0.55-0.67,1.1-1,1.65c-0.31,0.51-0.62,1.01-0.93,1.52c-0.06,0.1-0.12,0.21-0.19,0.31c-0.01,0.02-0.02,0.03-0.04,0.05
			c-0.01,0.01-0.03,0.01-0.04,0c-0.01-0.02-0.02-0.05-0.03-0.07C16.09,9.42,16,9.2,15.91,8.98c-0.07-0.18-0.15-0.35-0.23-0.52
			c-0.03-0.06-0.06-0.12-0.08-0.19c-0.03-0.08-0.07-0.16-0.1-0.23c-0.08-0.16-0.16-0.32-0.25-0.47c-0.07-0.13-0.15-0.27-0.22-0.4
			c-0.05-0.09-0.1-0.19-0.14-0.28c-0.1-0.2-0.21-0.39-0.33-0.57c-0.05-0.07-0.1-0.15-0.15-0.22C14.4,6.07,14.35,6.01,14.36,6
			s0.08,0.05,0.09,0.06c0.22,0.14,0.44,0.27,0.66,0.41c0.07,0.05,0.14,0.1,0.21,0.15c0.15,0.12,0.29,0.27,0.39,0.44
			c0.01,0.02,0.03,0.04,0.04,0.07c0.01,0.01,0.02,0.02,0.04,0.01c0.01,0,0.01-0.01,0.01-0.02c0-0.01,0-0.01,0-0.02
			c0-0.09,0-0.18,0-0.27c0-0.19-0.03-0.37-0.06-0.55c-0.06-0.35-0.17-0.68-0.31-1c-0.17-0.35-0.39-0.68-0.65-0.96
			c-0.32-0.35-0.69-0.63-1.11-0.85c-0.3-0.16-0.62-0.28-0.95-0.36c-0.16-0.04-0.31-0.07-0.47-0.1c-0.14-0.02-0.28-0.03-0.42-0.05
			c-0.03,0-0.07,0-0.11-0.01c-0.16-0.01-0.31,0-0.47,0c-0.08,0-0.16,0.01-0.24,0.02c-0.02,0-0.04,0.01-0.06,0.01
			c-0.18,0.01-0.36,0.05-0.54,0.08C10.08,3.13,9.74,3.23,9.4,3.37C8.98,3.53,8.57,3.75,8.19,4c-0.62,0.41-1.16,0.95-1.6,1.57
			C6.24,6.06,5.98,6.61,5.81,7.2C5.74,7.41,5.69,7.63,5.66,7.85C5.62,8.1,5.6,8.36,5.61,8.61c0,0.09,0,0.17,0.02,0.26
			c0,0.03,0.01,0.06,0.01,0.1c0.09,0.84,0.38,1.58,0.93,2.21c0.33,0.38,0.72,0.69,1.16,0.92c0.27,0.14,0.54,0.25,0.83,0.33
			c0.17,0.05,0.34,0.08,0.52,0.12c0.12,0.01,0.24,0.04,0.36,0.04c0.02,0,0.03,0,0.05,0c0.23,0.03,0.45,0.02,0.68,0.02
			c0.05,0,0.09-0.01,0.14-0.01c0.03,0,0.05-0.01,0.08-0.01c0.13,0,0.25-0.03,0.37-0.04c0.12-0.02,0.24-0.04,0.36-0.07
			c0.27-0.06,0.53-0.14,0.78-0.23c0.27-0.1,0.52-0.22,0.78-0.35c0.03-0.02,0.06-0.04,0.1-0.05c0.01,0,0.02,0,0.03,0.01
			c0.01,0.01,0.03,0.02,0.04,0.03c0.02,0.02,0.04,0.05,0.06,0.07c0.42,0.55,0.84,1.09,1.26,1.64c0.03,0.03,0.05,0.06,0.07,0.1
			c0,0.02,0,0.03-0.01,0.04c-0.01,0.01-0.01,0.01-0.02,0.02c-0.03,0.02-0.05,0.03-0.08,0.05c-0.24,0.14-0.49,0.27-0.75,0.38
			c-0.03,0.01-0.07,0.03-0.1,0.04c-0.03,0.01-0.06,0.01-0.09,0c-0.03-0.01-0.06-0.02-0.08-0.03c-0.16-0.07-0.32-0.13-0.48-0.17
			c-0.01,0-0.03,0-0.04,0c0,0-0.01,0-0.01,0c0,0.01,0,0.02,0.01,0.03c0.01,0.01,0.02,0.02,0.04,0.03c0.12,0.08,0.24,0.15,0.36,0.23
			c0.01,0.01,0.01,0.01,0.02,0.02c0,0.01,0,0.02-0.01,0.03c-0.02,0.01-0.04,0.02-0.05,0.03c-0.1,0.04-0.2,0.08-0.3,0.11
			c-0.31,0.11-0.62,0.19-0.93,0.26c-0.02,0.01-0.05,0.01-0.07,0.02c-0.04,0.01-0.08,0.01-0.12,0.01c-0.01,0-0.03-0.01-0.04-0.01
			c-0.03-0.01-0.05-0.03-0.08-0.05c-0.05-0.03-0.09-0.06-0.14-0.1c-0.09-0.06-0.19-0.12-0.29-0.16c-0.01,0-0.02-0.01-0.03-0.01
			c0,0-0.01,0-0.01,0.01c-0.01,0.01-0.01,0.02,0,0.03c0,0,0,0,0,0c0.04,0.06,0.1,0.11,0.15,0.16c0.05,0.04,0.1,0.09,0.15,0.13
			c0.01,0.01,0.01,0.01,0.02,0.02c0.01,0.01,0,0.04-0.01,0.04c-0.04,0.01-0.08,0.02-0.12,0.03c-0.08,0.01-0.16,0.03-0.24,0.03
			c-0.15,0.02-0.31,0.04-0.47,0.04c-0.02,0-0.04,0-0.06,0c-0.28,0.03-0.55,0.02-0.83,0.02c-0.03,0-0.06-0.02-0.08-0.04
			c-0.01-0.01-0.02-0.02-0.03-0.04c-0.03-0.04-0.05-0.08-0.08-0.12c-0.06-0.08-0.12-0.15-0.19-0.2c-0.01-0.01-0.02-0.01-0.02,0
			c0,0,0,0.01,0,0.01c0,0.01,0,0.01,0,0.02c0.01,0.06,0.03,0.11,0.06,0.16c0.02,0.04,0.04,0.08,0.05,0.11
			c0,0.01,0.01,0.02,0.01,0.03c0,0.01-0.01,0.03-0.02,0.04c-0.01,0-0.02,0-0.03,0c-0.07,0-0.14-0.01-0.21-0.01
			c-0.05,0-0.09-0.01-0.13-0.01c-0.03,0-0.06-0.01-0.09-0.01c-0.07-0.01-0.14-0.01-0.21-0.03c-0.06-0.01-0.13-0.02-0.19-0.03
			c-0.13-0.02-0.26-0.05-0.39-0.07c-0.17-0.04-0.33-0.08-0.5-0.13c-0.03-0.01-0.05-0.03-0.07-0.06c-0.02-0.05-0.04-0.1-0.06-0.15
			c-0.05-0.11-0.11-0.22-0.18-0.32c-0.01-0.02-0.03-0.03-0.04-0.02c-0.01,0.01-0.01,0.03-0.01,0.04c0,0.05,0.01,0.11,0.03,0.16
			c0.01,0.05,0.02,0.09,0.04,0.14c0.01,0.02,0.01,0.04,0.01,0.06c0,0.02-0.01,0.04-0.03,0.04c0,0,0,0-0.01,0
			c-0.04,0-0.07-0.02-0.1-0.03c-0.55-0.19-1.06-0.44-1.55-0.76c-0.01-0.01-0.02-0.02-0.04-0.03c-0.02-0.01-0.03-0.03-0.03-0.06
			c0-0.03,0-0.06,0-0.1c0.02-0.1,0.02-0.21,0.03-0.32c0.01-0.05,0.01-0.11,0-0.16c0-0.01-0.01-0.02-0.01-0.03
			c0,0-0.01-0.01-0.01-0.01c0,0-0.01,0-0.01,0.01c-0.02,0.03-0.03,0.07-0.04,0.1c-0.02,0.09-0.04,0.18-0.06,0.26
			c-0.01,0.04-0.02,0.08-0.03,0.12c-0.01,0.02-0.04,0.03-0.06,0.02c-0.01-0.01-0.02-0.01-0.03-0.02c-0.01-0.01-0.02-0.01-0.02-0.02
			c-0.36-0.27-0.7-0.57-1-0.92c-0.05-0.06-0.11-0.13-0.16-0.19c-0.02-0.03-0.03-0.07-0.02-0.11c0-0.01,0.01-0.02,0.01-0.03
			c0.07-0.16,0.12-0.33,0.17-0.5c0-0.01,0-0.01,0-0.02c0-0.01,0-0.02-0.01-0.02c-0.01,0-0.02,0-0.03,0.01
			c-0.06,0.08-0.11,0.16-0.16,0.25c-0.03,0.05-0.06,0.1-0.08,0.15c-0.01,0.01-0.01,0.02-0.02,0.02c-0.01,0.01-0.02,0-0.03,0
			c-0.01-0.01-0.02-0.02-0.03-0.03c-0.26-0.36-0.48-0.76-0.65-1.18c-0.02-0.05-0.04-0.1-0.06-0.15c0-0.02-0.01-0.03-0.01-0.05
			c0-0.02,0-0.04,0.02-0.06c0.02-0.02,0.03-0.04,0.05-0.06c0.06-0.07,0.12-0.13,0.18-0.2c0.04-0.05,0.08-0.1,0.11-0.15
			c0.01-0.02,0.02-0.04,0.02-0.06c0-0.01,0-0.02-0.01-0.02c0,0-0.01,0-0.01,0c-0.02,0-0.04,0.02-0.05,0.03
			c-0.1,0.08-0.2,0.16-0.3,0.24C3.02,10.53,3,10.54,2.99,10.55c-0.01,0.01-0.02,0-0.03-0.01c-0.01-0.02-0.02-0.04-0.03-0.06
			c-0.05-0.17-0.09-0.35-0.13-0.53c-0.02-0.1-0.04-0.2-0.05-0.3C2.73,9.46,2.71,9.25,2.71,9.04c0-0.04,0.02-0.07,0.05-0.09
			C2.81,8.92,2.86,8.89,2.9,8.86c0.06-0.04,0.11-0.08,0.15-0.13C3.06,8.72,3.06,8.71,3.07,8.7c0-0.01,0-0.02,0-0.03
			C3.06,8.66,3.05,8.66,3.04,8.66C2.97,8.67,2.89,8.7,2.81,8.73C2.8,8.74,2.78,8.74,2.76,8.75c-0.01,0-0.03-0.01-0.04-0.02
			c0-0.01,0-0.02-0.01-0.03c0-0.05,0-0.11,0.01-0.16c0.01-0.07,0.01-0.15,0.02-0.22c0.01-0.1,0.02-0.19,0.04-0.28
			C2.81,7.85,2.84,7.67,2.89,7.5c0.02-0.07,0.04-0.14,0.06-0.21c0.01-0.04,0.03-0.06,0.07-0.07C3.1,7.19,3.18,7.17,3.26,7.15
			C3.39,7.12,3.52,7.07,3.64,7C3.65,7,3.65,6.99,3.66,6.98c0,0,0-0.01,0-0.02s0-0.01-0.01-0.01c-0.04,0-0.07,0-0.11,0
			C3.47,6.97,3.4,6.97,3.32,6.98C3.27,6.99,3.21,7,3.16,7.01c-0.03,0-0.06,0.01-0.09,0C3.06,7.01,3.05,7,3.05,6.99
			c0-0.01,0-0.02,0-0.03C3.08,6.89,3.1,6.83,3.13,6.77c0.14-0.36,0.32-0.7,0.51-1.03C3.65,5.72,3.66,5.7,3.68,5.68
			c0.03-0.04,0.08-0.07,0.13-0.07c0.01,0,0.02,0,0.03,0c0.2-0.01,0.2-0.01,0.37-0.04c0.06-0.01,0.12-0.03,0.18-0.04
			C4.4,5.53,4.4,5.51,4.4,5.5c0-0.01,0-0.02-0.02-0.02c-0.02,0-0.04,0-0.06-0.01C4.18,5.47,4.04,5.46,3.89,5.45
			c-0.02,0-0.03-0.03-0.02-0.05c0.01-0.01,0.01-0.02,0.01-0.03C3.9,5.35,3.91,5.33,3.93,5.31C4.05,5.14,4.17,4.99,4.3,4.84
			C4.42,4.69,4.56,4.55,4.7,4.4c0.02-0.02,0.04-0.04,0.07-0.06c0.01-0.01,0.03-0.01,0.04-0.02c0.03-0.01,0.07-0.01,0.1,0
			c0.05,0.01,0.1,0.03,0.15,0.04c0.1,0.03,0.2,0.05,0.29,0.07C5.4,4.46,5.46,4.47,5.52,4.46c0,0,0.01,0,0.01-0.01c0,0,0-0.01,0-0.02
			C5.51,4.42,5.49,4.41,5.47,4.4C5.37,4.34,5.25,4.3,5.14,4.25C5.09,4.23,5.03,4.22,4.99,4.19c-0.01,0-0.01-0.02-0.01-0.03
			c0,0,0-0.01,0.01-0.01C5,4.12,5.02,4.1,5.05,4.08c0.14-0.12,0.28-0.24,0.43-0.35c0.15-0.12,0.3-0.23,0.46-0.33
			c0.03-0.02,0.05-0.03,0.08-0.05C6.07,3.3,6.14,3.29,6.2,3.31c0.06,0.02,0.12,0.03,0.18,0.04c0.01,0,0.02,0,0.03,0.01
			C6.5,3.37,6.6,3.38,6.69,3.4c0.01,0,0.02,0,0.02-0.01c0-0.01,0-0.02-0.01-0.03C6.69,3.35,6.68,3.34,6.66,3.33
			C6.58,3.29,6.49,3.25,6.4,3.21C6.39,3.2,6.38,3.19,6.36,3.18C6.36,3.18,6.35,3.17,6.34,3.16c0.01-0.01,0.02-0.03,0.03-0.04
			c0.01-0.01,0.02-0.01,0.03-0.02C6.68,2.94,6.97,2.8,7.26,2.67c0.12-0.05,0.23-0.1,0.35-0.15C7.64,2.51,7.67,2.51,7.7,2.51
			c0.02,0,0.04,0,0.06,0.01c0.03,0.02,0.06,0.03,0.09,0.05c0.09,0.05,0.19,0.09,0.29,0.12c0.01,0,0.02,0,0.03-0.01
			c0-0.01,0-0.02-0.01-0.03C8.17,2.65,8.16,2.64,8.15,2.63c-0.07-0.06-0.13-0.12-0.2-0.17c0,0-0.01-0.01-0.01-0.01
			c-0.01-0.01-0.01-0.04,0-0.04C7.94,2.41,7.95,2.4,7.96,2.39c0.14-0.04,0.27-0.09,0.4-0.12C8.6,2.21,8.79,2.16,9,2.12
			c0.15-0.03,0.3-0.06,0.45-0.08c0.01,0,0.03,0,0.05,0c0.03,0,0.06,0.01,0.09,0.02c0.05,0.04,0.1,0.08,0.15,0.11
			c0.03,0.02,0.06,0.04,0.1,0.04c0.01,0,0.02-0.01,0.02-0.02c0-0.01,0-0.02-0.01-0.03C9.81,2.14,9.79,2.11,9.77,2.09
			C9.76,2.07,9.75,2.06,9.75,2.05C9.74,2.03,9.75,2,9.77,2C9.88,1.98,10,1.96,10.11,1.96c0.05,0,0.1,0,0.15-0.01
			c0.27-0.03,0.54-0.02,0.81-0.02c0.04,0,0.08,0,0.12,0.01c0.04,0,0.08,0.03,0.1,0.06c0.02,0.04,0.04,0.07,0.07,0.11
			c0.03,0.04,0.06,0.08,0.1,0.12c0.01,0.01,0.02,0.01,0.03,0C11.5,2.22,11.5,2.21,11.5,2.2c0-0.05-0.02-0.1-0.03-0.16
			c0-0.02-0.01-0.03-0.01-0.05c0-0.01,0.01-0.03,0.03-0.03c0.01,0,0.03,0,0.04,0c0.04,0,0.07,0.01,0.11,0.01
			c0.03,0,0.07,0.01,0.1,0.01c0.12,0.01,0.23,0.03,0.34,0.04c0.3,0.05,0.6,0.11,0.9,0.19c0.41,0.11,0.81,0.26,1.19,0.44
			c0.6,0.28,1.16,0.64,1.66,1.09c0.5,0.44,0.91,0.96,1.24,1.55c0.2,0.36,0.36,0.75,0.47,1.15c0.02,0.07,0.03,0.14,0.06,0.21
			c0,0.01,0.01,0.02,0.02,0.02c0.01,0,0.03,0,0.04-0.01c0.06-0.05,0.13-0.1,0.19-0.16c0.01-0.01,0.19-0.19,0.56-0.56
			C18.5,5.91,18.58,5.82,18.59,5.83L18.59,5.83z"/>
		<path class="st22" d="M14,10.11c-0.01,0.01-0.01,0.02-0.02,0.03C13.99,10.13,13.99,10.12,14,10.11z"/>
		<path class="st23" d="M2.81,18.14C2.81,18.14,2.81,18.14,2.81,18.14C2.81,18.14,2.81,18.14,2.81,18.14z"/>
		<path class="st23" d="M9.02,15.61c0-0.02-0.02-0.03-0.03-0.03c-0.02-0.01-0.05-0.01-0.07-0.01c-0.06,0-0.12,0-0.18,0
			c-0.22-0.01-0.43-0.03-0.65-0.05c-0.02,0-0.03,0-0.04-0.01c-0.1-0.02-0.21-0.04-0.31-0.06c-0.18-0.04-0.35-0.08-0.53-0.12
			c-0.19-0.05-0.38-0.1-0.57-0.16C6.47,15.11,6.31,15.05,6.15,15c-0.04-0.01-0.08-0.03-0.11-0.04c-0.14-0.05-0.28-0.12-0.42-0.18
			c-0.03-0.02-0.06-0.03-0.1-0.04c-0.01,0-0.03,0-0.04,0c-0.01,0-0.03,0.01-0.04,0.02c-0.06,0.04-0.12,0.08-0.17,0.13
			c-0.15,0.14-0.23,0.31-0.23,0.52c0,0.07,0,0.14,0.01,0.21c0,0.02-0.01,0.06-0.04,0.06c-0.03,0.01-0.06,0.03-0.1,0.04
			c-0.05,0.02-0.1,0.05-0.14,0.09c-0.05,0.04-0.1,0.09-0.13,0.15c-0.03,0.06-0.06,0.12-0.06,0.2c0,0.04,0,0.07,0,0.11
			c0,0.02,0,0.03,0,0.05c0,0.02-0.01,0.03-0.02,0.04c-0.04,0.02-0.08,0.04-0.12,0.06c-0.11,0.05-0.21,0.2-0.2,0.31
			c0,0.02,0,0.03,0,0.05c0,0.02-0.01,0.03-0.02,0.04c-0.02,0.01-0.05,0.02-0.07,0.03c-0.07,0.02-0.13,0.06-0.19,0.1
			c-0.08,0.05-0.15,0.13-0.19,0.22c-0.01,0.03-0.02,0.06-0.04,0.09c-0.03,0.06-0.08,0.11-0.15,0.13c-0.03,0.01-0.06,0.02-0.09,0.03
			c-0.06,0.02-0.12,0.06-0.16,0.11c-0.1,0.13-0.22,0.24-0.35,0.32c-0.03,0.02-0.07,0.04-0.1,0.07c-0.04,0.03-0.09,0.05-0.13,0.08
			c-0.17,0.11-0.34,0.22-0.51,0.34c-0.22,0.16-0.44,0.31-0.68,0.45c-0.3,0.18-0.61,0.36-0.91,0.54c-0.02,0.01-0.04,0.03-0.07,0.04
			c-0.02,0.01-0.04,0.03-0.06,0.04c-0.01,0.01-0.02,0.01-0.02,0.02c-0.01,0.01-0.02,0.05-0.01,0.06c0.01,0.01,0.02,0.02,0.04,0.02
			c0.04,0,0.08-0.01,0.12-0.03c0.18-0.1,0.37-0.19,0.55-0.29c0.09-0.04,0.17-0.09,0.25-0.14c0.23-0.14,0.46-0.26,0.7-0.38
			c0.48-0.24,0.95-0.48,1.42-0.73C4,17.71,4.42,17.5,4.84,17.31c0.32-0.14,0.64-0.29,0.96-0.43c0.89-0.4,1.79-0.75,2.72-1.04
			c0.15-0.05,0.3-0.1,0.44-0.15c0.01-0.01,0.03-0.01,0.04-0.02C9.01,15.66,9.03,15.63,9.02,15.61z M2.87,18.08l0.05-0.03
			c0.05-0.04,0.1-0.07,0.15-0.1c0.05-0.03,0.1-0.07,0.15-0.1c0.08-0.06,0.15-0.13,0.21-0.21c0.04-0.06,0.1-0.11,0.16-0.13
			c0.06-0.02,0.11-0.05,0.16-0.09c0.01-0.01,0.03,0,0.04,0.01c0.01,0.02,0.02,0.03,0.04,0.05c0,0,0.01,0,0.01,0
			c0.01,0,0.01,0,0.01-0.01c0.01-0.02,0-0.04-0.01-0.06c-0.01-0.04,0-0.09,0.02-0.12c0.02-0.04,0.04-0.08,0.07-0.12
			c0.07-0.1,0.16-0.17,0.27-0.22c0.01,0,0.02-0.01,0.03-0.01c0.02,0,0.04,0,0.06,0.02c0.02,0.03,0.04,0.06,0.07,0.08
			c0.02,0.01,0.03,0.03,0.05,0.03c0.01,0,0.01,0,0.01,0c0.01,0,0.01-0.02,0.01-0.03c-0.02-0.07-0.04-0.14-0.06-0.21
			c0-0.02-0.01-0.03-0.01-0.05c0-0.05,0.01-0.09,0.04-0.14c0.03-0.06,0.08-0.1,0.13-0.13c0.03-0.01,0.06-0.02,0.08-0.03
			c0.02-0.01,0.05-0.01,0.07,0.01c0.06,0.03,0.12,0.06,0.18,0.08c0.01,0.01,0.03,0.01,0.04,0.03c0.01,0.01,0.01,0.02,0.02,0.03
			c0,0.02,0.01,0.04,0.01,0.06c0,0.04,0.01,0.07,0.03,0.11c0.02,0.04,0.05,0.07,0.08,0.09c0.02,0.01,0.05,0.02,0.07,0.03
			c0.01,0,0.03-0.01,0.04-0.02c0,0,0-0.01,0-0.02c-0.01-0.02-0.03-0.02-0.05-0.03c-0.07-0.03-0.1-0.1-0.11-0.18
			c0-0.02,0.02-0.05,0.04-0.06c0.03-0.01,0.06-0.02,0.09-0.03c0.04,0,0.07-0.01,0.11-0.01c0.05,0,0.1-0.02,0.15-0.04
			c0,0,0.01,0,0.01-0.01c0.01-0.01,0.01-0.02,0.01-0.03c0-0.01,0-0.02-0.02-0.02c-0.02,0-0.04,0-0.06,0c-0.09,0-0.18,0-0.27,0
			c-0.05,0-0.1-0.01-0.15-0.02c-0.1-0.03-0.17-0.12-0.18-0.23c-0.01-0.11,0.03-0.2,0.11-0.27c0.03-0.02,0.06-0.05,0.09-0.06
			c0.04-0.02,0.08-0.04,0.12-0.06c0.02-0.01,0.05,0,0.07,0.02c0.01,0.02,0.02,0.03,0.04,0.05c0.05,0.08,0.12,0.13,0.2,0.17
			c0.09,0.04,0.18,0.07,0.27,0.1c0.02,0.01,0.04,0.01,0.06,0.02c0.03,0.01,0.06,0.03,0.08,0.07c0.02,0.06,0.07,0.09,0.11,0.13
			c0.08,0.06,0.16,0.1,0.26,0.13c0.02,0.01,0.04,0.01,0.06,0c0.01,0,0.02-0.01,0.01-0.02c0,0,0-0.01-0.01-0.01
			c-0.01-0.01-0.02-0.02-0.04-0.03c-0.05-0.03-0.09-0.06-0.14-0.09C6,16.31,5.98,16.29,5.96,16.28C5.87,16.2,5.85,16.13,5.88,16
			c0.03-0.08,0.07-0.15,0.12-0.22c0.01-0.01,0.02-0.01,0.03-0.02c0.01-0.01,0.02-0.01,0.03,0c0.01,0.01,0.03,0.01,0.04,0.02
			c0.02,0.02,0.05,0.04,0.07,0.06c0.02,0.01,0.04,0.02,0.07,0.03c0.05,0.02,0.11,0.02,0.16-0.01c0.01-0.01,0.02-0.01,0.02-0.02
			c0.01-0.01,0-0.02,0-0.03c0,0-0.01-0.01-0.01-0.01c-0.02,0-0.04,0-0.06,0.01c-0.06,0.02-0.11,0-0.16-0.03
			c-0.04-0.03-0.08-0.07-0.09-0.12c0-0.01,0-0.02,0-0.03c0.01-0.03,0.03-0.07,0.05-0.1c0-0.01,0-0.02,0.01-0.03
			c0-0.02-0.01-0.03-0.03-0.03c-0.01,0-0.02,0-0.03,0.01c-0.01,0.02-0.02,0.03-0.03,0.06c-0.01,0.04-0.02,0.07-0.04,0.11
			C6.02,15.66,6,15.69,5.97,15.7c-0.1,0.05-0.16,0.14-0.2,0.25c-0.01,0.03-0.03,0.07-0.04,0.1c-0.01,0.01-0.02,0.02-0.04,0.02
			c-0.01,0-0.02-0.01-0.03-0.01c-0.07-0.04-0.13-0.07-0.2-0.11c-0.03-0.02-0.06-0.04-0.09-0.06c-0.08-0.07-0.14-0.16-0.16-0.26
			c-0.03-0.11-0.04-0.23-0.03-0.35c0.01-0.04,0.02-0.08,0.03-0.12c0.04-0.11,0.11-0.2,0.2-0.27c0.02-0.02,0.05-0.02,0.07-0.01
			c0.01,0,0.03,0.01,0.04,0.02c0.18,0.1,0.38,0.17,0.57,0.24c0.28,0.11,0.56,0.2,0.85,0.27c0.1,0.03,0.2,0.05,0.31,0.08
			c0.12,0.03,0.24,0.06,0.37,0.09c0.08,0.02,0.17,0.04,0.25,0.05c0.2,0.03,0.41,0.05,0.61,0.07c0.01,0,0.02,0,0.02,0.02
			c0,0.01,0,0.02-0.01,0.03c-0.01,0.01-0.02,0.01-0.03,0.01c-0.09,0.02-0.18,0.05-0.28,0.08c-0.28,0.09-0.55,0.19-0.83,0.29
			c-0.18,0.06-0.36,0.13-0.54,0.2c-0.27,0.1-0.53,0.22-0.8,0.33c-0.47,0.2-0.94,0.41-1.4,0.62c-0.46,0.21-0.91,0.44-1.36,0.68
			c0,0-0.15,0.09-0.24,0.13c-0.01,0-0.04,0.02-0.08,0.04c0,0-0.03,0.02-0.06,0.03c-0.06,0.03-0.28,0.17-0.3,0.16
			c0,0-0.01,0-0.01-0.01c0,0,0-0.01,0-0.01c0.05-0.04,0.17-0.14,0.22-0.16"/>
		<path class="st24" d="M9.65,1.52c0-0.1-0.01-0.2-0.02-0.3C9.62,1.18,9.6,1.16,9.56,1.15C9.53,1.14,9.5,1.14,9.47,1.14
			c-0.07,0-0.14,0-0.21,0.01C9.21,1.15,9.15,1.16,9.1,1.16c-0.01,0-0.03,0-0.04,0c-0.01,0-0.03-0.01-0.03-0.03
			c0-0.01-0.01-0.02-0.01-0.03C8.99,0.94,8.93,0.79,8.89,0.64C8.88,0.61,8.86,0.58,8.85,0.56C8.84,0.54,8.82,0.52,8.8,0.52
			C8.78,0.5,8.75,0.5,8.73,0.5C8.64,0.51,8.56,0.52,8.48,0.54C8.41,0.55,8.34,0.56,8.27,0.58C7.99,0.64,7.76,0.71,7.51,0.79
			c-0.62,0.2-1.23,0.47-1.81,0.79C5.49,1.7,5.28,1.84,5.08,2C5.07,2.01,5.06,2.02,5.05,2.03c0,0-0.01,0.01-0.01,0.01
			c0,0.01,0,0.02,0,0.03C5.05,2.09,5.05,2.1,5.06,2.12c0.1,0.1,0.19,0.21,0.29,0.3C5.38,2.44,5.4,2.46,5.42,2.49
			c0,0.01,0,0.02,0,0.03C5.41,2.54,5.38,2.56,5.36,2.57c-0.06,0.05-0.11,0.1-0.15,0.15C5.19,2.75,5.18,2.77,5.17,2.79
			c-0.01,0.01-0.01,0.03,0,0.05C5.18,2.85,5.19,2.87,5.2,2.88c0.04,0.04,0.08,0.07,0.12,0.09c0.08,0.05,0.15,0.1,0.22,0.16
			c0.02,0.02,0.04,0.03,0.06,0.04c0.01,0,0.02,0,0.03,0c0.01,0,0.01-0.01,0.01-0.03C5.64,3.13,5.63,3.11,5.62,3.09
			c-0.04-0.07-0.1-0.12-0.16-0.17C5.43,2.9,5.39,2.88,5.36,2.86C5.34,2.85,5.33,2.84,5.32,2.83c-0.01-0.01-0.01-0.03,0-0.04
			c0.02-0.02,0.04-0.05,0.06-0.07c0.07-0.07,0.15-0.13,0.23-0.19c0.11-0.08,0.23-0.15,0.35-0.22c0.26-0.14,0.53-0.27,0.81-0.38
			c0.38-0.16,0.76-0.29,1.16-0.41c0.18-0.05,0.37-0.1,0.56-0.14c0.13-0.03,0.27-0.05,0.4-0.08c0.08-0.02,0.16-0.03,0.24-0.04
			C9.21,1.25,9.3,1.25,9.39,1.24c0.02,0,0.03,0,0.05,0c0.03,0,0.06,0.02,0.07,0.05C9.51,1.32,9.52,1.36,9.53,1.4
			c0.02,0.08,0.04,0.15,0.07,0.23c0,0.01,0.02,0.03,0.03,0.04c0,0,0.01,0,0.01,0c0,0,0.01,0,0.01-0.01
			C9.65,1.61,9.65,1.56,9.65,1.52z M8.88,1.19C8.84,1.2,8.79,1.21,8.75,1.22c-0.1,0.02-0.21,0.04-0.31,0.06
			C8.25,1.32,8.07,1.37,7.89,1.43C7.54,1.52,7.2,1.64,6.87,1.77c-0.25,0.1-0.5,0.21-0.75,0.33C5.96,2.18,5.8,2.27,5.64,2.37
			C5.62,2.39,5.59,2.41,5.56,2.42c-0.01,0-0.02,0-0.03,0.01c0,0-0.01,0-0.01-0.01C5.51,2.41,5.49,2.4,5.48,2.39
			C5.39,2.3,5.3,2.21,5.21,2.11c-0.02-0.02-0.02-0.04,0-0.06c0,0,0,0,0.01-0.01c0.01-0.01,0.02-0.01,0.02-0.02
			C5.25,2.02,5.26,2.01,5.28,2c0.16-0.12,0.33-0.23,0.5-0.33c0.26-0.15,0.54-0.29,0.82-0.41c0.34-0.15,0.69-0.29,1.05-0.4
			c0.23-0.07,0.45-0.13,0.68-0.19C8.45,0.65,8.58,0.62,8.7,0.6c0.02,0,0.05,0.02,0.06,0.04c0.04,0.11,0.07,0.22,0.1,0.33
			C8.88,1.03,8.9,1.08,8.91,1.14C8.92,1.15,8.9,1.19,8.88,1.19z"/>
		<path class="st25" d="M3.48,14.64c0.31-0.17,0.63-0.33,0.94-0.5c0.02-0.01,0.04-0.02,0.05-0.03c0.01-0.01,0.01-0.02,0.01-0.03
			c0-0.01,0-0.02-0.01-0.02c0,0,0,0,0,0c-0.01-0.01-0.03-0.01-0.04,0c-0.05,0.02-0.1,0.04-0.15,0.07c-0.16,0.08-0.32,0.16-0.48,0.24
			c-0.42,0.22-0.84,0.46-1.25,0.7c-0.02,0.01-0.04,0.03-0.06,0.04s-0.04,0.03-0.06,0.05c-0.01,0.01-0.01,0.02-0.02,0.03
			c0,0,0,0.01,0,0.01c0,0,0.01,0.01,0.01,0.01c0.04,0.01,0.08-0.02,0.11-0.04c0.22-0.12,0.44-0.23,0.66-0.36
			C3.28,14.75,3.38,14.69,3.48,14.64z"/>
		<path class="st26" d="M19.39,14.47c-0.01,0.02-0.02,0.04-0.03,0.05c-0.25,0.42-0.53,0.83-0.82,1.22
			c-0.01,0.01-0.02,0.03-0.03,0.04c-0.01,0.03,0,0.04,0.03,0.04c0.01-0.01,0.03-0.03,0.04-0.04c0.07-0.08,0.13-0.16,0.19-0.24
			c0.14-0.19,0.28-0.39,0.41-0.59c0.07-0.1,0.13-0.21,0.19-0.32c0.01-0.03,0.03-0.05,0.04-0.09C19.44,14.5,19.45,14.47,19.39,14.47z
			"/>
		<path class="st27" d="M3.46,13.39c-0.01-0.01-0.03-0.01-0.04,0c-0.19,0.09-0.38,0.19-0.57,0.28c-0.05,0.02-0.1,0.06-0.14,0.08
			c-0.02,0.01-0.03,0.03-0.04,0.04c0,0,0,0.01,0,0.02c0,0.01,0.01,0.02,0.02,0.02c0.03,0.01,0.05,0,0.07-0.01
			c0.22-0.11,0.43-0.21,0.65-0.33c0.02-0.01,0.04-0.02,0.05-0.03c0.01-0.01,0.02-0.02,0.03-0.04c0,0,0-0.01,0-0.01
			C3.48,13.4,3.47,13.39,3.46,13.39z"/>
		<path class="st28" d="M18.52,14.42c-0.12,0.14-0.23,0.28-0.34,0.43c-0.1,0.13-0.2,0.27-0.31,0.39c-0.01,0.01-0.01,0.02-0.01,0.03
			c0,0.01,0,0.01,0,0.02c0,0.01,0.02,0.02,0.03,0.02c0,0,0,0,0,0c0.05-0.02,0.08-0.06,0.11-0.1c0.17-0.2,0.33-0.41,0.47-0.64
			c0.02-0.04,0.04-0.07,0.06-0.11C18.54,14.44,18.53,14.43,18.52,14.42C18.53,14.42,18.52,14.42,18.52,14.42z"/>
		<path class="st29" d="M17.76,14.62c0-0.01-0.01-0.02-0.02,0c0,0-0.01,0.01-0.01,0.01c-0.08,0.09-0.15,0.18-0.23,0.27
			c-0.01,0.01-0.01,0.03,0,0.05c0,0.01,0.01,0.02,0.02,0.01c0.03,0,0.05-0.02,0.06-0.04c0.07-0.07,0.12-0.15,0.17-0.24
			c0-0.01,0.01-0.02,0.01-0.03c0-0.01,0-0.01,0-0.02C17.76,14.63,17.76,14.63,17.76,14.62z"/>
		<path class="st30" d="M18.51,15.78c0.01,0.02,0.02,0.03,0.03,0.04c0,0.01,0,0.01,0,0.01c-0.04,0.05-0.09,0.1-0.15,0.13
			c0,0-0.01,0-0.01,0c0,0,0-0.01,0-0.01c0-0.01,0-0.01,0-0.02c0.04-0.05,0.08-0.1,0.12-0.14C18.5,15.78,18.51,15.78,18.51,15.78z"/>
		<path class="st31" d="M19.42,14.53c0-0.01,0-0.02,0-0.03c0-0.02-0.01-0.03-0.02-0.03c0.02-0.06,0.04-0.1,0.07-0.13
			c0,0,0.01,0,0.01,0l0,0c0,0.01,0.01,0.02,0.01,0.03c0,0.04-0.03,0.08-0.04,0.11C19.45,14.5,19.44,14.52,19.42,14.53z"/>
		<path class="st31" d="M19.48,14.34c-0.01,0-0.01-0.01,0-0.02c0-0.01,0.01-0.01,0.02,0c0,0,0.01,0.01,0.01,0.01
			C19.5,14.34,19.49,14.34,19.48,14.34L19.48,14.34z"/>
		<path class="st0" d="M14.24,7.54c-0.06-0.33-0.17-0.65-0.3-0.96C14.07,6.89,14.17,7.21,14.24,7.54z"/>
		<path class="st0" d="M13.62,6.03c0.02,0.03,0.04,0.05,0.05,0.08c0.06,0.1,0.12,0.19,0.17,0.29c-0.03-0.06-0.07-0.13-0.1-0.19
			C13.69,6.12,13.66,6.06,13.62,6.03z"/>
		<path class="st0" d="M13.49,10.48c0.11,0.1,0.15,0.11,0.25,0c0.16-0.17,0.27-0.36,0.35-0.58c-0.09,0.22-0.21,0.42-0.37,0.59
			c-0.07,0.08-0.12,0.09-0.2,0.01c-0.25-0.26-0.53-0.49-0.79-0.74c-0.55-0.53-1.11-1.04-1.67-1.57c-0.03-0.03-0.06-0.06-0.09-0.07
			c0.33,0.34,0.69,0.64,1.03,0.97C12.5,9.56,13,10.01,13.49,10.48z"/>
		<path class="st0" d="M11.39,7.31C11.2,7.43,11,7.52,10.83,7.67c0.03-0.01,0.07-0.04,0.1-0.06c0.3-0.19,0.6-0.38,0.91-0.57
			c0.53-0.33,1.06-0.66,1.58-1c0.01-0.01,0.03-0.02,0.04-0.02c-0.03,0.01-0.06,0.03-0.1,0.06C12.69,6.49,12.04,6.9,11.39,7.31z"/>
		<path class="st0" d="M14.25,9.36c-0.01,0.05-0.02,0.1-0.03,0.15c0.06-0.22,0.09-0.45,0.11-0.67C14.31,9.01,14.28,9.19,14.25,9.36z
			"/>
		<path class="st32" d="M14.32,8.88c0,0,0-0.01,0-0.01C14.32,8.88,14.32,8.88,14.32,8.88z"/>
		<path class="st32" d="M14.31,8.93L14.31,8.93L14.31,8.93z"/>
		<path class="st32" d="M14.31,9.01C14.31,9,14.31,9,14.31,9.01C14.31,9,14.31,9,14.31,9.01z"/>
		<path class="st32" d="M14.28,9.22L14.28,9.22L14.28,9.22z"/>
		<path class="st32" d="M14.3,9.05c0,0,0-0.01,0-0.01C14.3,9.05,14.3,9.05,14.3,9.05z"/>
		<path class="st32" d="M13.8,6.3C13.79,6.3,13.79,6.29,13.8,6.3C13.79,6.29,13.79,6.3,13.8,6.3z"/>
		<path class="st32" d="M13.72,6.16c0-0.01-0.01-0.01-0.01-0.02C13.71,6.15,13.71,6.15,13.72,6.16z"/>
		<path class="st32" d="M13.67,6.08L13.67,6.08L13.67,6.08z"/>
		<path class="st32" d="M13.7,6.13L13.7,6.13L13.7,6.13z"/>
		<path class="st32" d="M13.68,6.1L13.68,6.1L13.68,6.1z"/>
		<path class="st32" d="M13.77,6.25c-0.01-0.02-0.02-0.03-0.03-0.05C13.75,6.22,13.76,6.23,13.77,6.25z"/>
		<path class="st32" d="M13.73,6.18l-0.01-0.01L13.73,6.18z"/>
		<path class="st32" d="M13.74,6.2c0-0.01-0.01-0.01-0.01-0.02C13.73,6.19,13.74,6.19,13.74,6.2z"/>
		<path class="st32" d="M13.69,6.12l-0.01-0.01L13.69,6.12z"/>
		<path class="st32" d="M13.81,10.39c0.01-0.01,0.01-0.02,0.02-0.02C13.83,10.38,13.82,10.38,13.81,10.39z"/>
		<path class="st32" d="M13.78,10.43c0.01-0.01,0.01-0.02,0.02-0.03C13.8,10.41,13.79,10.42,13.78,10.43z"/>
		<path class="st32" d="M13.74,10.48c0.01-0.01,0.02-0.02,0.03-0.04C13.76,10.46,13.75,10.47,13.74,10.48z"/>
		<path class="st32" d="M13.84,10.35c0.01-0.01,0.01-0.02,0.02-0.03C13.86,10.34,13.85,10.35,13.84,10.35z"/>
		<path class="st32" d="M11.92,9.01l0.02,0.02L11.92,9.01z"/>
		<path class="st32" d="M13.87,10.32c0.01-0.01,0.02-0.03,0.03-0.04C13.89,10.29,13.88,10.3,13.87,10.32z"/>
		<path class="st32" d="M11.79,8.89L11.8,8.9L11.79,8.89z"/>
		<path class="st32" d="M11.85,8.95l0.02,0.02L11.85,8.95z"/>
		<path class="st32" d="M14.03,10.03l0.01-0.02L14.03,10.03z"/>
		<path class="st32" d="M14.07,9.95c0-0.01,0.01-0.01,0.01-0.02C14.08,9.93,14.07,9.94,14.07,9.95z"/>
		<path class="st32" d="M14.01,10.08c0-0.01,0.01-0.02,0.01-0.03C14.02,10.06,14.01,10.07,14.01,10.08z"/>
		<path class="st32" d="M14.05,9.99l0.01-0.02C14.06,9.98,14.06,9.98,14.05,9.99z"/>
		<path class="st32" d="M13.98,10.14c0.01-0.01,0.01-0.02,0.02-0.03C13.99,10.12,13.99,10.13,13.98,10.14z"/>
		<path class="st32" d="M13.93,10.22c0-0.01,0.01-0.02,0.01-0.02C13.94,10.2,13.94,10.21,13.93,10.22z"/>
		<path class="st32" d="M13.91,10.27c0.01-0.01,0.01-0.02,0.02-0.03C13.92,10.25,13.91,10.26,13.91,10.27z"/>
		<path class="st32" d="M13.96,10.18c0-0.01,0.01-0.02,0.01-0.03C13.97,10.16,13.96,10.17,13.96,10.18z"/>
		<path class="st32" d="M11.35,7.34l-0.01,0.01L11.35,7.34z"/>
		<path class="st32" d="M11.31,7.36L11.31,7.36L11.31,7.36z"/>
		<path class="st32" d="M11.27,7.38L11.27,7.38L11.27,7.38z"/>
		<path class="st32" d="M13.41,6.04L13.41,6.04L13.41,6.04z"/>
		<path class="st32" d="M13.4,6.05l-0.01,0.01L13.4,6.05z"/>
		<path class="st32" d="M13.36,6.07l-0.02,0.01L13.36,6.07z"/>
		<path class="st32" d="M13.38,6.06l-0.01,0.01L13.38,6.06z"/>
		<path class="st32" d="M14.21,9.51c-0.02,0.08-0.05,0.17-0.07,0.25c-0.02,0.05-0.03,0.1-0.05,0.14
			C14.14,9.77,14.18,9.64,14.21,9.51L14.21,9.51z"/>
		<path class="st32" d="M10.98,8.12L10.98,8.12c-0.03-0.03-0.06-0.06-0.09-0.09c0,0.01,0,0.02,0.01,0.03c0,0.01,0,0.03,0,0.05
			c0,0.01-0.01,0.02-0.01,0.03l0,0C10.92,8.11,10.95,8.11,10.98,8.12z"/>
		<path class="st32" d="M10.76,7.68l0.01,0.05l0,0c0.02-0.02,0.04-0.04,0.06-0.05C10.81,7.68,10.78,7.69,10.76,7.68z"/>
		<path class="st32" d="M14.24,7.54L14.24,7.54c0.02,0.12,0.04,0.25,0.06,0.38c0.03,0.31,0.05,0.61,0.03,0.92l0,0
			C14.36,8.4,14.33,7.97,14.24,7.54z"/>
		<path class="st32" d="M13.92,6.55c-0.02-0.05-0.05-0.1-0.07-0.15c0.03,0.06,0.06,0.13,0.09,0.19l0,0
			C13.93,6.57,13.93,6.56,13.92,6.55z"/>
		<path class="st32" d="M13.45,6.02L13.45,6.02c0.08-0.04,0.13-0.04,0.17,0C13.57,5.97,13.53,5.97,13.45,6.02z"/>
		<path class="st32" d="M13.43,6.03C13.42,6.03,13.42,6.03,13.43,6.03C13.42,6.03,13.42,6.03,13.43,6.03z"/>
		<path class="st32" d="M13.65,6.06L13.65,6.06L13.65,6.06z"/>
		<path class="st32" d="M13.66,6.07L13.66,6.07L13.66,6.07z"/>
		<path class="st32" d="M13.63,6.03L13.63,6.03L13.63,6.03z"/>
		<path class="st32" d="M10.96,8.15c0.02,0.02,0.04,0.03,0.06,0.05l2.18,2.04c0.12,0.11,0.23,0.22,0.35,0.33
			c0.02,0.02,0.04,0.03,0.06,0.04c0.01,0.01,0.03,0.01,0.04,0c0.01-0.01,0.03-0.02,0.04-0.03c0.07-0.06,0.13-0.14,0.18-0.21
			c0.08-0.12,0.16-0.25,0.22-0.38c0.15-0.35,0.23-0.71,0.27-1.09c0.01-0.08,0.01-0.17,0.02-0.26c0.01-0.1,0.01-0.2,0-0.3
			c0-0.09-0.01-0.17-0.02-0.26c0-0.03,0-0.06-0.01-0.1c-0.02-0.1-0.02-0.21-0.05-0.32c-0.05-0.29-0.12-0.57-0.22-0.85
			C14,6.62,13.91,6.42,13.8,6.24c-0.02-0.03-0.03-0.05-0.05-0.08C13.71,6.07,13.66,6,13.6,5.94c-0.01-0.01-0.04-0.02-0.06-0.01
			c-0.01,0.01-0.03,0.01-0.04,0.02c-0.05,0.03-0.1,0.06-0.14,0.09c-0.47,0.29-0.93,0.59-1.4,0.88c-0.39,0.24-0.78,0.49-1.17,0.73
			c-0.01,0.01-0.03,0.02-0.03,0.03l0,0c0.02,0.01,0.05,0,0.07-0.01c0.01-0.01,0.02-0.02,0.03-0.03l0,0c0.13-0.1,0.27-0.18,0.41-0.26
			l0,0c0.01-0.01,0.02-0.01,0.03-0.02l0.01-0.01c0.01-0.01,0.02-0.01,0.03-0.02l0.01-0.01c0.01-0.01,0.03-0.02,0.04-0.02
			c0.65-0.41,1.3-0.82,1.96-1.23l0.02-0.01l0.01,0l0.01-0.01l0.01,0l0.01-0.01l0.01-0.01l0.01,0l0.01,0c0,0,0,0,0.01,0
			c0.01,0,0.01-0.01,0.02-0.01h0c0.09-0.05,0.12-0.06,0.17,0l0.01,0.01l0,0c0.01,0.01,0.01,0.01,0.02,0.02l0,0l0.01,0.01l0,0
			c0,0,0.01,0.01,0.01,0.01l0,0l0.01,0.01l0,0.01l0.01,0.01l0.01,0.01l0,0.01l0.01,0.01l0,0.01c0,0.01,0.01,0.01,0.01,0.02
			c0,0,0,0,0,0.01l0.01,0.01c0,0,0,0,0,0.01c0,0.01,0.01,0.01,0.01,0.02c0.01,0.02,0.02,0.03,0.03,0.05
			c0.01,0.01,0.02,0.03,0.02,0.04c0,0,0,0,0,0c0.02,0.03,0.03,0.06,0.05,0.1c0.03,0.05,0.05,0.1,0.07,0.15
			c0.01,0.01,0.01,0.03,0.02,0.04l0,0c0.07,0.15,0.13,0.31,0.18,0.47v0c0.01,0.02,0.01,0.04,0.02,0.06l0,0
			c0.04,0.14,0.08,0.28,0.11,0.43l0,0c0.09,0.42,0.12,0.86,0.08,1.29l0,0c0,0.01,0,0.02,0,0.04c0,0,0,0.01,0,0.01
			c0,0.01,0,0.02,0,0.04l0,0.01c0,0.03,0,0.05-0.01,0.08c0,0,0,0,0,0l0,0.04c0,0,0,0.01,0,0.01c0,0.04-0.01,0.08-0.02,0.12v0
			c0,0.01,0,0.03-0.01,0.04l0,0c-0.01,0.06-0.02,0.11-0.03,0.17l0,0c-0.01,0.04-0.02,0.08-0.03,0.13l0,0
			c-0.03,0.13-0.07,0.26-0.13,0.39c0,0.01-0.01,0.01-0.01,0.02s-0.01,0.01-0.01,0.02c0,0.01-0.01,0.01-0.01,0.02l-0.01,0.02
			c0,0.01-0.01,0.01-0.01,0.02l-0.01,0.02c0,0.01-0.01,0.01-0.01,0.02c0,0.01-0.01,0.02-0.01,0.03C14,10.09,14,10.1,14,10.11
			c-0.01,0.01-0.01,0.02-0.02,0.03c0,0.01-0.01,0.01-0.01,0.02c0,0.01-0.01,0.02-0.01,0.03c0,0.01-0.01,0.01-0.01,0.02
			c0,0.01-0.01,0.02-0.01,0.02c0,0.01-0.01,0.01-0.01,0.02c-0.01,0.01-0.01,0.02-0.02,0.03l-0.01,0.01
			c-0.01,0.01-0.02,0.03-0.03,0.04l-0.01,0.01c-0.01,0.01-0.01,0.02-0.02,0.03l-0.01,0.01c-0.01,0.01-0.01,0.02-0.02,0.02
			l-0.01,0.01c-0.01,0.01-0.01,0.02-0.02,0.03c0,0-0.01,0.01-0.01,0.01c-0.01,0.01-0.02,0.02-0.03,0.04c-0.1,0.11-0.14,0.1-0.25,0
			C13,10.01,12.5,9.56,12.01,9.09l-0.07-0.06l-0.02-0.02l-0.05-0.05l-0.02-0.02L11.8,8.9l-0.01-0.01c-0.27-0.25-0.55-0.5-0.81-0.76
			l0,0c-0.03-0.01-0.06-0.01-0.09,0.01l0,0C10.91,8.13,10.93,8.13,10.96,8.15z"/>
		<path class="st32" d="M11.8,8.9l0.05,0.05l0.02,0.02l0.05,0.05l0.02,0.02l0.07,0.06c0.49,0.47,0.99,0.92,1.48,1.39
			c0.11,0.1,0.15,0.11,0.25,0c0.01-0.01,0.02-0.02,0.03-0.04c0,0,0.01-0.01,0.01-0.01c0.01-0.01,0.01-0.02,0.02-0.03l0.01-0.01
			c0.01-0.01,0.01-0.02,0.02-0.02l0.01-0.01c0.01-0.01,0.01-0.02,0.02-0.03l0.01-0.01c0.01-0.01,0.02-0.03,0.03-0.04l0.01-0.01
			c0.01-0.01,0.01-0.02,0.02-0.03c0-0.01,0.01-0.01,0.01-0.02c0-0.01,0.01-0.02,0.01-0.02c0-0.01,0.01-0.01,0.01-0.02
			c0-0.01,0.01-0.02,0.01-0.03c0-0.01,0.01-0.01,0.01-0.02c0.01-0.01,0.01-0.02,0.02-0.03c0-0.01,0.01-0.01,0.01-0.02
			c0-0.01,0.01-0.02,0.01-0.03c0-0.01,0.01-0.01,0.01-0.02l0.01-0.02c0-0.01,0.01-0.01,0.01-0.02c0-0.01,0.01-0.01,0.01-0.02
			s0.01-0.01,0.01-0.02s0.01-0.01,0.01-0.02c0-0.01,0.01-0.01,0.01-0.02l0,0c0.02-0.05,0.04-0.1,0.05-0.14
			c0.03-0.08,0.05-0.16,0.07-0.25c0.01-0.04,0.02-0.08,0.03-0.13l0,0c0.01-0.05,0.02-0.11,0.03-0.17l0,0c0-0.01,0-0.03,0.01-0.04v0
			c0.01-0.04,0.01-0.08,0.02-0.12c0,0,0-0.01,0-0.01c0-0.01,0-0.02,0-0.04c0,0,0,0,0,0c0-0.03,0.01-0.05,0.01-0.08l0-0.01
			c0-0.01,0-0.02,0-0.04c0,0,0-0.01,0-0.01c0-0.01,0-0.02,0-0.04c0.02-0.3,0.01-0.61-0.03-0.92c-0.01-0.13-0.03-0.25-0.06-0.38
			c-0.03-0.14-0.06-0.29-0.11-0.43l0,0c-0.01-0.02-0.01-0.04-0.02-0.06v0C14.06,6.89,14,6.74,13.94,6.58
			c-0.03-0.06-0.06-0.13-0.09-0.19l0,0c-0.02-0.03-0.03-0.06-0.05-0.1c0,0,0,0,0,0c-0.01-0.01-0.02-0.03-0.02-0.04
			c-0.01-0.02-0.02-0.03-0.03-0.05c0-0.01-0.01-0.01-0.01-0.02c0,0,0,0,0-0.01l-0.01-0.01c0,0,0,0,0-0.01
			c0-0.01-0.01-0.01-0.01-0.02l0-0.01L13.7,6.12l0-0.01l-0.01-0.01L13.68,6.1l0-0.01l-0.01-0.01l0,0c0,0-0.01-0.01-0.01-0.01l0,0
			l-0.01-0.01l0,0c-0.01-0.01-0.01-0.01-0.02-0.02l0,0l-0.01-0.01l0,0c-0.05-0.04-0.1-0.04-0.17,0c-0.01,0-0.01,0.01-0.02,0.01
			c0,0,0,0-0.01,0l-0.01,0l-0.01,0L13.4,6.05l-0.01,0.01l-0.01,0l-0.01,0.01l-0.01,0l-0.02,0.01c-0.65,0.41-1.31,0.82-1.96,1.23
			c-0.01,0.01-0.03,0.02-0.04,0.02l-0.01,0.01c-0.01,0.01-0.02,0.01-0.03,0.02L11.3,7.37c-0.01,0.01-0.02,0.01-0.03,0.02l0,0
			c-0.14,0.08-0.28,0.16-0.41,0.26l0,0c-0.01,0.01-0.02,0.02-0.03,0.03l0,0c-0.02,0.02-0.04,0.04-0.06,0.05l0,0
			c0.04-0.03,0.09-0.05,0.13-0.08c0.18-0.11,0.35-0.22,0.53-0.33l1.88-1.18c0.04-0.03,0.09-0.05,0.13-0.08
			c0.02-0.01,0.04-0.02,0.05-0.03c0.01,0,0.02-0.01,0.03-0.01c0.03,0,0.06,0,0.08,0.03c0.09,0.11,0.16,0.23,0.22,0.36
			c0.03,0.06,0.05,0.11,0.08,0.17c0.16,0.36,0.27,0.73,0.33,1.12c0.01,0.08,0.02,0.17,0.03,0.25c0.01,0.08,0.02,0.17,0.02,0.25
			c0,0.04,0,0.09,0.01,0.13c0.01,0.1,0.01,0.19,0,0.29c-0.01,0.14-0.01,0.29-0.04,0.43c-0.03,0.23-0.08,0.46-0.15,0.68
			c-0.05,0.15-0.11,0.29-0.18,0.42c-0.07,0.13-0.15,0.25-0.26,0.35c-0.01,0.01-0.02,0.01-0.02,0.02c-0.01,0.01-0.03,0.01-0.04,0
			c-0.02-0.01-0.04-0.03-0.06-0.05c-0.28-0.26-0.55-0.51-0.82-0.77c-0.56-0.53-1.13-1.06-1.7-1.58c-0.03-0.03-0.07-0.06-0.1-0.09
			c-0.01-0.01-0.02-0.01-0.03-0.01c0.03,0.03,0.06,0.06,0.09,0.09c0.26,0.27,0.54,0.51,0.81,0.76L11.8,8.9z"/>
		<path class="st32" d="M13.4,6.05L13.4,6.05L13.4,6.05z"/>
		<path class="st32" d="M10.86,7.65c0.13-0.1,0.27-0.18,0.41-0.26C11.13,7.47,10.99,7.54,10.86,7.65z"/>
		<path class="st32" d="M13.7,6.13L13.7,6.13L13.7,6.13z"/>
		<path class="st32" d="M13.65,6.06L13.65,6.06L13.65,6.06z"/>
		<path class="st32" d="M13.36,6.07L13.36,6.07L13.36,6.07z"/>
		<path class="st32" d="M13.72,6.16C13.72,6.16,13.72,6.16,13.72,6.16C13.72,6.16,13.72,6.16,13.72,6.16z"/>
		<path class="st32" d="M13.41,6.04L13.41,6.04L13.41,6.04z"/>
		<path class="st32" d="M13.67,6.08L13.67,6.08L13.67,6.08z"/>
		<path class="st32" d="M11.35,7.34c0.01-0.01,0.03-0.02,0.04-0.02C11.38,7.32,11.36,7.33,11.35,7.34z"/>
		<path class="st32" d="M13.38,6.06L13.38,6.06L13.38,6.06z"/>
		<path class="st32" d="M13.68,6.1L13.68,6.1L13.68,6.1z"/>
		<path class="st32" d="M11.31,7.36c0.01-0.01,0.02-0.01,0.03-0.02C11.33,7.35,11.32,7.35,11.31,7.36z"/>
		<path class="st32" d="M13.66,6.07c0,0,0.01,0.01,0.01,0.01C13.66,6.08,13.66,6.07,13.66,6.07z"/>
		<path class="st32" d="M11.27,7.38c0.01-0.01,0.02-0.01,0.03-0.02C11.29,7.37,11.28,7.38,11.27,7.38z"/>
		<path class="st32" d="M13.69,6.12L13.69,6.12L13.69,6.12z"/>
		<path class="st32" d="M13.43,6.03c0.01,0,0.01-0.01,0.02-0.01C13.44,6.03,13.43,6.03,13.43,6.03z"/>
		<path class="st32" d="M14.03,10.03c0,0.01-0.01,0.01-0.01,0.02C14.03,10.05,14.03,10.04,14.03,10.03z"/>
		<path class="st32" d="M13.78,10.43c0,0-0.01,0.01-0.01,0.01C13.77,10.44,13.78,10.44,13.78,10.43z"/>
		<path class="st32" d="M13.96,10.18c0,0.01-0.01,0.01-0.01,0.02C13.95,10.19,13.96,10.19,13.96,10.18z"/>
		<path class="st32" d="M13.81,10.39l-0.01,0.01L13.81,10.39z"/>
		<path class="st32" d="M12.01,9.09l-0.07-0.06L12.01,9.09z"/>
		<path class="st32" d="M13.84,10.35l-0.01,0.01L13.84,10.35z"/>
		<path class="st32" d="M13.93,10.22c0,0.01-0.01,0.01-0.01,0.02C13.93,10.23,13.93,10.23,13.93,10.22z"/>
		<path class="st32" d="M13.87,10.32l-0.01,0.01L13.87,10.32z"/>
		<path class="st32" d="M13.91,10.27l-0.01,0.01L13.91,10.27z"/>
		<path class="st32" d="M11.92,9.01l-0.05-0.05L11.92,9.01z"/>
		<path class="st32" d="M10.86,7.65c-0.01,0.01-0.02,0.02-0.03,0.03l0,0C10.84,7.66,10.85,7.66,10.86,7.65z"/>
		<path class="st32" d="M11.85,8.95L11.8,8.9L11.85,8.95z"/>
		<path class="st32" d="M10.98,8.12c0.26,0.27,0.54,0.51,0.81,0.76C11.52,8.64,11.24,8.39,10.98,8.12z"/>
		<path class="st32" d="M13.63,6.03L13.63,6.03L13.63,6.03L13.63,6.03z"/>
		<path class="st32" d="M14.08,9.92c0-0.01,0.01-0.01,0.01-0.02l0,0C14.09,9.91,14.08,9.92,14.08,9.92z"/>
		<path class="st32" d="M13.65,6.05c-0.01-0.01-0.01-0.01-0.02-0.02C13.63,6.04,13.64,6.05,13.65,6.05z"/>
		<path class="st32" d="M13.85,6.39c-0.02-0.03-0.03-0.06-0.05-0.1C13.81,6.33,13.83,6.36,13.85,6.39z"/>
		<path class="st32" d="M14.01,10.08C14,10.09,14,10.1,14,10.11C14,10.1,14,10.09,14.01,10.08z"/>
		<path class="st32" d="M14.32,8.88c0,0.01,0,0.02,0,0.04C14.32,8.91,14.32,8.9,14.32,8.88z"/>
		<path class="st32" d="M14.13,7.11c0.04,0.14,0.08,0.28,0.11,0.43C14.21,7.4,14.17,7.25,14.13,7.11z"/>
		<path class="st32" d="M14.32,8.84c0,0.01,0,0.02,0,0.04C14.32,8.86,14.32,8.85,14.32,8.84z"/>
		<path class="st32" d="M14.31,8.93c0,0.03,0,0.05-0.01,0.08C14.31,8.98,14.31,8.95,14.31,8.93z"/>
		<path class="st32" d="M14.11,7.05c0.01,0.02,0.01,0.04,0.02,0.06C14.13,7.09,14.12,7.07,14.11,7.05z"/>
		<path class="st32" d="M14.31,9.01c0,0.01,0,0.02,0,0.04L14.31,9.01z"/>
		<path class="st32" d="M13.77,6.25c0.01,0.01,0.02,0.03,0.02,0.04C13.79,6.28,13.78,6.26,13.77,6.25z"/>
		<path class="st32" d="M13.94,6.58c0.07,0.15,0.13,0.31,0.18,0.47C14.06,6.89,14,6.74,13.94,6.58z"/>
		<path class="st32" d="M13.98,10.14c0,0.01-0.01,0.01-0.01,0.02C13.98,10.15,13.98,10.14,13.98,10.14z"/>
		<path class="st32" d="M14.3,9.05c0,0.04-0.01,0.08-0.02,0.12C14.29,9.13,14.3,9.09,14.3,9.05z"/>
		<path class="st32" d="M14.07,9.95c0,0.01-0.01,0.01-0.01,0.02C14.06,9.96,14.07,9.95,14.07,9.95z"/>
		<path class="st32" d="M13.73,6.18C13.73,6.18,13.73,6.18,13.73,6.18C13.73,6.18,13.73,6.18,13.73,6.18z"/>
		<path class="st32" d="M14.05,9.99c0,0.01-0.01,0.01-0.01,0.02C14.05,10,14.05,10,14.05,9.99z"/>
		<path class="st32" d="M14.24,9.38c-0.01,0.04-0.02,0.08-0.03,0.13C14.23,9.47,14.23,9.43,14.24,9.38z"/>
		<path class="st32" d="M14.28,9.17c0,0.01,0,0.03-0.01,0.04C14.28,9.2,14.28,9.19,14.28,9.17z"/>
		<path class="st32" d="M14.28,9.22c-0.01,0.06-0.02,0.11-0.03,0.17C14.26,9.33,14.27,9.27,14.28,9.22z"/>
		<path class="st33" d="M10.16,4.86L10.16,4.86c0-0.09-0.01-0.17-0.01-0.22c-0.02-0.46-0.02-0.28-0.02-0.32c0,0-0.01-0.13-0.04-0.2
			c-0.01-0.02-0.02-0.03-0.04-0.04c-0.02-0.01-0.05-0.01-0.07,0C9.95,4.09,9.93,4.11,9.92,4.13C9.91,4.2,9.9,4.25,9.9,4.26
			c0,0.14,0.02,0.3,0.02,0.35c0.01,0.12,0.01,0.25,0,0.26c0,0,0,0.17,0.04,0.25c0.01,0.02,0.03,0.04,0.05,0.05
			c0.02,0.01,0.04,0.01,0.06,0c0.02-0.01,0.03-0.02,0.05-0.04c0.02-0.02,0.04-0.05,0.04-0.08c0-0.01,0-0.02,0-0.03
			C10.16,4.97,10.16,4.92,10.16,4.86z"/>
		<path class="st34" d="M7.48,8.43c-0.03-0.02-0.06-0.04-0.1-0.04c-0.07,0-0.13,0-0.2,0l0,0C7.05,8.4,6.94,8.41,6.86,8.41
			c-0.05,0-0.06,0-0.07,0c-0.1,0-0.19,0.01-0.29,0c-0.06,0-0.12,0.02-0.17,0.04C6.31,8.47,6.3,8.51,6.31,8.53
			c0.01,0.02,0.02,0.03,0.04,0.04C6.42,8.6,6.49,8.61,6.56,8.61C6.68,8.6,7.4,8.6,7.48,8.54C7.49,8.53,7.49,8.53,7.5,8.52
			C7.51,8.49,7.51,8.45,7.48,8.43z"/>
		<path class="st34" d="M10.58,11.19c0.01,0.11,0.02,0.21,0.02,0.32c0,0.03,0,0.09,0.01,0.19c0.01,0.06,0.01,0.1,0.04,0.14
			c0.01,0.01,0.04,0.06,0.08,0.05c0.03-0.01,0.05-0.05,0.05-0.06c0-0.01,0.01-0.03,0.01-0.04c0-0.1-0.03-0.39-0.03-0.54
			c0-0.01,0-0.07-0.01-0.21c0-0.09-0.02-0.11-0.02-0.14c-0.01-0.04-0.05-0.07-0.09-0.07c-0.01,0-0.02,0-0.03,0.01
			c-0.01,0.01-0.02,0.02-0.03,0.03C10.55,10.92,10.58,11.19,10.58,11.19z"/>
		<path class="st18" d="M8.27,6.28c-0.05-0.04-0.1-0.09-0.15-0.13C8,6.08,7.9,6,7.79,5.92C7.74,5.89,7.69,5.86,7.64,5.84
			c-0.01,0-0.03-0.01-0.04-0.01c-0.01,0-0.02,0-0.03,0.01c-0.01,0-0.02,0.01-0.02,0.02c0,0.01,0,0.02,0,0.03
			C7.56,5.9,7.57,5.91,7.59,5.92c0.09,0.07,0.18,0.13,0.28,0.19C7.94,6.17,8.02,6.22,8.1,6.28C8.14,6.3,8.18,6.32,8.22,6.34
			c0.01,0,0.02,0.01,0.03,0.01c0.01,0,0.02,0,0.03,0c0.01-0.01,0.01-0.03,0-0.04C8.28,6.3,8.27,6.29,8.27,6.28z"/>
		<path class="st35" d="M8.69,10.33c-0.01,0-0.01,0-0.01,0.01c-0.06,0.05-0.12,0.1-0.17,0.15c-0.04,0.04-0.03,0.02-0.11,0.1
			c-0.06,0.06-0.06,0.05-0.1,0.1c-0.06,0.05-0.12,0.12-0.18,0.16c-0.02,0.01-0.03,0.03-0.04,0.05c-0.01,0.02,0,0.04,0.02,0.05
			c0,0,0,0,0,0c0.02,0.01,0.05,0.01,0.07-0.01c0.02-0.01,0.03-0.03,0.05-0.04c0.03-0.03,0.07-0.06,0.1-0.1
			c0.11-0.12,0.2-0.25,0.32-0.35c0,0,0.02-0.01,0.07-0.09c0.01-0.01,0.01-0.02,0-0.03C8.7,10.33,8.69,10.33,8.69,10.33z"/>
		<path class="st36" d="M5.28,7.83c-0.03,0-0.71,2.06,0.2,3.46c1.02,1.56,3.51,1.47,3.5,1.48c0,0.01-1.09,0-2.14-0.79
			c-0.21-0.16-0.86-0.66-1.27-1.56C4.99,9.11,5.31,7.84,5.28,7.83z"/>
		<path class="st0" d="M16.7,15.18c-0.04,0.04-2.22-2.31-2.18-2.36c0.03-0.03,0.77,0.66,1.46,1.46
			C16.28,14.61,16.72,15.16,16.7,15.18z"/>
		<path class="st0" d="M13.61,2.58c0.58,0.25,1.13,0.58,1.64,0.98c0.68,0.54,1.08,1.04,1.09,1.03c0.02-0.02-0.45-0.72-1.23-1.28
			C14.65,2.98,14.14,2.73,13.61,2.58z"/>
		<path class="st37" d="M16.56,9.03c-0.03-0.02,0.17-0.62,0.53-1.24c0.37-0.63,0.8-1.09,0.83-1.07c0.02,0.02-0.22,0.34-0.65,1.06
			C16.78,8.59,16.59,9.04,16.56,9.03z"/>
		<path class="st0" d="M8.6,0.75c0,0.02-0.23,0.04-0.61,0.14C7.59,1,7.37,1.11,7.36,1.1C7.36,1.08,7.61,0.91,7.95,0.82
			C8.29,0.72,8.6,0.73,8.6,0.75z"/>
		<path class="st0" d="M8.29,1.56c0-0.01,0.2-0.11,0.45-0.16c0.28-0.06,0.54-0.06,0.54-0.04c0,0.01-0.13,0.02-0.43,0.08
			C8.48,1.51,8.3,1.57,8.29,1.56z"/>
		<path class="st0" d="M13.76,7.21c-0.02,0.01,0.15,0.47,0.18,1.23c0.02,0.54-0.04,0.92-0.02,0.92c0.03,0,0.12-0.34,0.14-0.74
			C14.09,7.83,13.79,7.2,13.76,7.21z"/>
		<path class="st0" d="M13.65,7.59c-0.01,0,0.02,0.21,0.03,0.67c0.01,0.52-0.01,0.79,0.01,0.79c0.02,0,0.08-0.3,0.08-0.64
			C13.76,7.96,13.67,7.58,13.65,7.59z"/>
	</g>
</g>
</svg>
