<svg id="Capa_1" data-name="Capa 1" xmlns="http://www.w3.org/2000/svg" viewBox="0 0 512 512"><defs><style>.cls-1{fill:#ef2b2d;}</style></defs><title>conductor elegido</title><path class="cls-1" d="M496,456H448V152a96,96,0,0,0-96-96H334.32a88,88,0,0,0-156.64,0H160a96,96,0,0,0-96,96V456H16a8,8,0,0,0-8,8v32a8,8,0,0,0,8,8H496a8,8,0,0,0,8-8V464A8,8,0,0,0,496,456ZM352,72a80,80,0,0,1,80,80V456H400a142.39,142.39,0,0,0-8-38.88V320a72,72,0,0,0-72-72H296V230.27A88.67,88.67,0,0,0,337.92,184H344a32,32,0,1,0,0-64V96a85.43,85.43,0,0,0-3.44-24ZM172.88,416l40,40H160.4A95.48,95.48,0,0,1,172.88,416Zm62.4,40-53.2-53.2A95.55,95.55,0,0,1,194.8,390l55.52,56a8,8,0,0,0,11.31,0l.05,0,55.52-56a95.55,95.55,0,0,1,12.72,12.72L276.72,456Zm38.32-86.32a94.81,94.81,0,0,1,30.4,11.2l-48,48L235.28,408Zm-49.6,27-16-16A95,95,0,0,1,252.48,368ZM339.12,416A95.46,95.46,0,0,1,352,456H299.28ZM368,456a112,112,0,0,0-223.2,0h-16A128,128,0,0,1,384,456ZM136,320a56,56,0,0,1,56-56h28.16l29.6,37A8,8,0,0,0,261,302.22a8.41,8.41,0,0,0,1.23-1.23l29.6-37h8.88l-56.64,56.64a144,144,0,0,0-108.08,64Zm33.52-152H168a16,16,0,0,1,0-32v16A88.57,88.57,0,0,0,169.52,168ZM184,128h51.12A61.87,61.87,0,0,0,280,108.75,61.87,61.87,0,0,0,324.88,128H328v24a72,72,0,0,1-144,0Zm72,112a85.54,85.54,0,0,0,24-3.44v16.64l-24,30-24-30V236.51A85.54,85.54,0,0,0,256,240ZM376,384.51a144.78,144.78,0,0,0-64-53.2l49.12-49.2A55.94,55.94,0,0,1,376,320Zm-80.88-59a143.24,143.24,0,0,0-28.32-5l56-56a56,56,0,0,1,25.6,8ZM344,152V136a16,16,0,0,1,0,32h-1.52A88.57,88.57,0,0,0,344,152ZM256,24a72,72,0,0,1,72,72v16h-3.12a46,46,0,0,1-38.24-20.4,8,8,0,0,0-11.1-2.18,8.08,8.08,0,0,0-2.18,2.18A46,46,0,0,1,235.12,112H184V96A72,72,0,0,1,256,24ZM80,152a80,80,0,0,1,80-80h11.44A85.43,85.43,0,0,0,168,96v24a32,32,0,0,0,0,64h6.08A88.67,88.67,0,0,0,216,230.27V248H192a72,72,0,0,0-72,72v97.12A142.13,142.13,0,0,0,112.4,456H80ZM488,488H24V472H488Z"/></svg>