<svg id="Capa_1" data-name="Capa 1" xmlns="http://www.w3.org/2000/svg" viewBox="0 0 512 512"><defs><style>.cls-1{fill:#ef2b2d;}</style></defs><title>conductor_Mesa de trabajo 1</title><path class="cls-1" d="M480.25,159.94H395.16a26.67,26.67,0,0,0-26.63,26.64v97.94H336.71c1.77-6.43,2.42-14,2-22.84h0c-.69-37.29-7.46-68.73-20.12-93.43-9.83-19.17-21.3-30.67-31.14-37.54,11.55-11.88,18.23-28.78,18.23-48.27,0-35.06-28-63.59-62.35-63.59S181,47.37,181,82.43a7.35,7.35,0,0,0,7.35,7.35h5a51.77,51.77,0,0,0-.7,8.47,51,51,0,0,0,41,50c-2.45,9.08-3.66,19.8-3.66,32L211.62,196,167,199.59l-51.45-17c-4.71-1.57-10.06-3.34-14.7,0s-4.57,9.07-4.57,11v38.25a7.35,7.35,0,0,0,7.35,7.35h8.75L99,285.54a7.35,7.35,0,0,0,14.12,4.09l14.61-50.47h20.89c-26,79.26-11.16,132.16,11.64,185.7H147L92,363.33l11.63-40.2A7.35,7.35,0,1,0,89.5,319L78.37,357.49A73.94,73.94,0,0,0,5.31,414.8a7.35,7.35,0,0,0,5.51,8.81L21.26,426a56.24,56.24,0,0,0,108.68,25l8.23,1.89c2.46.57,4.78.86,7.11-.4a8.43,8.43,0,0,0,4.14-5.63c.51-2.41.91-4.86,1.18-7.32H304.32c4.92,30.56,30.92,53.6,62,53.6s57.06-23,62-53.6h7a10.07,10.07,0,0,0,7.64-2.77,9.43,9.43,0,0,0,2.59-7.15,82.91,82.91,0,0,0-3-19.91c5.86-35.54.22-57.19-8.13-74.13a19.34,19.34,0,0,0,8.78-16.19V299.21h37.13a26.67,26.67,0,0,0,26.63-26.64v-86a26.66,26.66,0,0,0-26.63-26.64Zm-381,306.67a41.2,41.2,0,0,1-31.35,5.28h0a41.66,41.66,0,0,1-32.2-42.54l79.73,18.35a41.29,41.29,0,0,1-16.18,18.91Zm36.78-29.27L21.73,411a59.19,59.19,0,0,1,58.52-38.78l56,62.63C136.2,435.7,136.14,436.52,136.06,437.34Zm111-128.08c-2.14,5.63-2.14,12.57-2.14,22.17v27.73H218V321.11c0-43,23.48-50.68,34-51.95H324.1c-.29,9.76-2.49,16.71-6.67,21.11-4.88,5.13-13.22,7.63-25.5,7.65l-26.38,0c-9.41,0-15.63,3.81-18.47,11.32Zm-2.14,64.6v17.55H192.53c.59-5.44,2.28-9.65,5.07-12.57,4.14-4.33,10-5,13.08-5Zm78.84-119.4H256.94a272.64,272.64,0,0,1-7.05-27.2l20.32-13.19c11.1-7.2,16.87-17.38,15.84-27.93a26,26,0,0,0-16.19-21.27c-8.15-3.27-16.92-2.24-24.67,2.71A86.9,86.9,0,0,1,248.74,149a51.51,51.51,0,0,0,9.3-1.83,61.17,61.17,0,0,0,17.16-6.8c14.15,8.45,45.29,35.89,48.58,114.14ZM196.2,75.08c3.47-23.48,23.28-41.54,47.12-41.54C269.6,33.54,291,55.48,291,82.43c0,21.93-10.51,39.6-27.47,47.38V91.14c0-6.7-2.56-14.91-14.76-16a5,5,0,0,0-.67,0Zm11.11,23.17a36.61,36.61,0,0,1,1-8.47h39.42c.45,0,.79.11,1,.15a8.7,8.7,0,0,1,.07,1.21v43a37.26,37.26,0,0,1-5.27.38h-.05a36.27,36.27,0,0,1-36.17-36.27Zm-9.53,113.61,17.41-1.41a7.35,7.35,0,0,0,4.2-1.76l31.42-27h0a14.59,14.59,0,0,1,9.44-4,11,11,0,0,1,4.14.8,11.15,11.15,0,0,1,7,9.06c.48,5-2.79,10-9.21,14.17l-35,22.72H197.78v-12.6Zm-31.06,2.51,16.36-1.32v11.41h-19c-2.47,0-3.07-2-3.14-3.76A5.83,5.83,0,0,1,166.72,214.37Zm-17.4-5.08a21.55,21.55,0,0,0-3.08,12,22.08,22.08,0,0,0,.37,3.1s0,0,0,.06H111v-27.9l38.35,12.68,0,0Zm14.79,29.87h65.27a7.36,7.36,0,0,0,4-1.18l3.32-2.16c1.6,7.07,3.43,14,5.41,20.46-15,4.42-38.78,18.72-38.78,64.83V359.9A30.66,30.66,0,0,0,187,368.69c-5.38,5.63-8.45,13.25-9.19,22.72H163c-14.94-43.06-20.62-88.88,1.16-152.25Zm12.11,185.67c-2.72-6.25-5.33-12.47-7.8-18.72h76.32c9.89,0,14.9-4.5,14.9-13.38v-54h58a7.35,7.35,0,0,0,0-14.7h-58c.09-4.18.36-7.59,1.12-9.61.37-1,.7-1.83,4.73-1.83l26.39,0c16.53,0,28.35-4,36.15-12.23.36-.38.7-.78,1-1.17h99.3v20.2a4.72,4.72,0,0,1-4.65,4.66H350.61a7.35,7.35,0,0,0,0,14.7h68.85c5.81,10.78,11,24.2,10.72,45.4a79.76,79.76,0,0,0-121.49-9.49,80.94,80.94,0,0,0-23.1,50.17ZM366.3,478.46c-23,0-42.36-16.55-47-38.9h94.08c-4.69,22.34-24.06,38.9-47,38.9Zm55.39-53.6H300.35c3.61-33.24,31.4-59.17,65-59.17a65.21,65.21,0,0,1,62.55,46.73c0,.09.05.18.08.26a68.42,68.42,0,0,1,2.43,12.18Zm70.49-152.29a12,12,0,0,1-11.93,11.95h-97v-38h109Zm0-40.71H383.23V216.23h109Zm0-30.33H383.23V186.58a12,12,0,0,1,11.93-11.94h85.09a11.94,11.94,0,0,1,11.93,11.94Z"/></svg>