<svg id="Capa_1" data-name="Capa 1" xmlns="http://www.w3.org/2000/svg" viewBox="0 0 512 512"><defs><style>.cls-1{fill:#ef2b2d;}</style></defs><title>licores</title><path class="cls-1" d="M416.54,279.57A93.66,93.66,0,0,0,413,254a7.37,7.37,0,0,0-7.08-5.37H378.41a7.37,7.37,0,0,0,0,14.73h21.74a79,79,0,1,1-154.76,0H347a7.37,7.37,0,0,0,0-14.73H239.62a7.37,7.37,0,0,0-7.09,5.36,93.85,93.85,0,0,0,82.92,119.06,6.79,6.79,0,0,0,0,.78v97.95l-35.7,21.42a7.36,7.36,0,0,0,3.79,13.68h78.55a7.36,7.36,0,0,0,3.79-13.68l-35.7-21.42V373.83c0-.26,0-.52,0-.78A93.88,93.88,0,0,0,416.54,279.57ZM335.46,492.15H310.08l12.69-7.61Z"/><path class="cls-1" d="M385.61,272.2H259.93a7.37,7.37,0,0,0-7.37,7.37,70.21,70.21,0,0,0,140.42,0A7.37,7.37,0,0,0,385.61,272.2ZM322.77,335a55.56,55.56,0,0,1-55-48.11h110A55.55,55.55,0,0,1,322.77,335Z"/><path class="cls-1" d="M259.93,242.42a7.36,7.36,0,0,0,7.36-7.37V224.58c0-21.07-7.71-39.36-21.15-50.18-5.4-4.34-19.23-12.79-26-16.85V72L231.8,66.2a7.35,7.35,0,0,0,4.07-6.58V12.48a7.37,7.37,0,0,0-7.36-7.36H134.24a7.37,7.37,0,0,0-7.36,7.36V59.62A7.34,7.34,0,0,0,131,66.2L142.59,72v85.53c-6.75,4.06-20.58,12.51-26,16.85-13.44,10.82-21.15,29.11-21.15,50.18V468.09a38.83,38.83,0,0,0,38.78,38.79h94.27a38.83,38.83,0,0,0,38.78-38.79V363a7.37,7.37,0,1,0-14.73,0v3.44H231.77a7.36,7.36,0,0,0-6.28,3.52c-7.45,12.17-24.77,20-44.12,20s-36.66-7.87-44.11-20a7.36,7.36,0,0,0-6.28-3.52H110.19v-16.7H131a7.36,7.36,0,0,0,6.28-3.52c7.45-12.17,24.77-20,44.12-20s36.66,7.87,44.11,20a7.36,7.36,0,0,0,6.28,3.52h8.52a7.37,7.37,0,0,0,0-14.73h-4.64c-10.93-14.43-31.7-23.56-54.27-23.56S138,320.61,127.1,335H110.19V286.93H217.05a7.37,7.37,0,1,0,0-14.73H110.19V224.58c0-16.59,5.7-30.69,15.65-38.7,5.11-4.11,21.85-14.25,27.86-17.81a7.36,7.36,0,0,0,3.62-6.34v-16.2h48.11v16.21a7.35,7.35,0,0,0,3.62,6.33c6,3.56,22.74,13.69,27.86,17.81,10,8,15.65,22.11,15.65,38.7v10.47A7.37,7.37,0,0,0,259.93,242.42Zm-7.37,225.67a24.08,24.08,0,0,1-24.05,24.06H134.24a24.08,24.08,0,0,1-24.05-24.06V444H252.56v24ZM127.1,381.19c10.93,14.44,31.7,23.57,54.28,23.57s43.34-9.13,54.27-23.57h16.91v48.12H110.19V381.19ZM205.43,67.47V130.8H157.32V67.47a7.38,7.38,0,0,0-4.07-6.59l-11.64-5.82V19.85h79.53V55.06L209.5,60.88A7.38,7.38,0,0,0,205.43,67.47Z"/></svg>