<svg id="Capa_1" data-name="Capa 1" xmlns="http://www.w3.org/2000/svg" viewBox="0 0 512 512"><defs><style>.cls-1{fill:#ef2b2d;}</style></defs><title>mandados y encomiendas</title><path class="cls-1" d="M70.41,288.57l-40,16a8,8,0,0,0-5,7.06l-8,176a7.91,7.91,0,0,0,2.21,5.89A8,8,0,0,0,25.38,496h168a40,40,0,0,0,0-80v-8a24,24,0,0,0-48,0v8h-56V400h-16v19.36L35.53,441l5.61-123.48,27.1-10.83L89.72,378.3a8,8,0,0,0,5.72,5.47,8.5,8.5,0,0,0,1.94.23,8,8,0,0,0,5.66-2.34l40.05-40.06,19.54,30.7a8,8,0,0,0,13.5,0l19.54-30.7,40.05,40.06a8,8,0,0,0,5.66,2.34V488a8,8,0,0,0,8,8h168a7.85,7.85,0,0,0,4.36-1.46l.08.12,19.56-13,19.56,13A8,8,0,0,0,473.38,488V320a8,8,0,0,0-3.71-6.68l22.23-44.46A25.86,25.86,0,0,0,463.34,232l.9-7.29a18.6,18.6,0,0,0-10.1-19.26l-3.67-1.83a18.66,18.66,0,0,0-18.63,1.16l-15,10a2.64,2.64,0,0,1-2.07.36l-17.93-4.49a18.69,18.69,0,0,0-22.15,12.16l-1.54,4.64a2.62,2.62,0,0,1-3.29,1.64,18.61,18.61,0,0,0-24.49,17.64v32a34.63,34.63,0,0,0-7.56-6.91A18.92,18.92,0,0,1,329.38,256V208a8,8,0,0,0-8-8h-32a8,8,0,0,0-8,8v48a18.92,18.92,0,0,1-8.44,15.77,34.87,34.87,0,0,0-12,13.84l-30.45-12.19-9.43-12.8a116.07,116.07,0,0,0,52.34-97.14V120c0-59.29-44.71-104-104-104-63.19,0-104,40.82-104,104v43.48a116.06,116.06,0,0,0,52.34,97.14l-9.43,12.8ZM83.51,432h69.87a8,8,0,0,0,8-8V408a8,8,0,0,1,16,0v16a8,8,0,0,0,8,8h8a24,24,0,0,1,0,48H33.76l.91-20.1Zm17.69-71.13-18-60.16,27.05-10.82,24.1,37.88ZM409.38,480h-152V328h152Zm48-6.95-11.56-7.71a8,8,0,0,0-8.87,0l-11.57,7.72V334.94l11.56,7.72a8,8,0,0,0,8.87,0L457.38,335Zm13.15-225.48a9.88,9.88,0,0,1,7.06,14.13l-30.41,60.83-5.8,3.85-19.56-13-.08.12a7.85,7.85,0,0,0-4.36-1.46H405a212.74,212.74,0,0,1,58-62.75,9.81,9.81,0,0,1,7.53-1.68Zm-109.15-.87a2.59,2.59,0,0,1,3.42-2.46,18.6,18.6,0,0,0,23.52-11.76l1.55-4.65a2.58,2.58,0,0,1,3.09-1.69l17.93,4.48a18.57,18.57,0,0,0,14.83-2.56l15-10a2.6,2.6,0,0,1,2.6-.16l3.67,1.84a2.66,2.66,0,0,1,1.39,2.84L446,242.08A228.75,228.75,0,0,0,386.47,312H369.38l38.4-51.2L395,251.2,361.38,296Zm-79.56,38.38A34.9,34.9,0,0,0,297.38,256V216h16v40a34.9,34.9,0,0,0,15.56,29.08,18.92,18.92,0,0,1,8.44,15.77V312h-64V300.84A18.92,18.92,0,0,1,281.82,285.08ZM252.23,312h-2.85a8,8,0,0,0-8,8v28.15l-3.82,12.71-33.1-33.09,24.1-37.88,27.05,10.82ZM81.38,163.48V147.55a31.69,31.69,0,0,0,16,4.45h91.29a121.14,121.14,0,0,1-55.23,23.54l-50,7.64a100.34,100.34,0,0,1-2-19.7Zm16-27.48a16,16,0,0,1-14.82-10l24.35-6.09a258.73,258.73,0,0,1,124.93,0L256.2,126a16,16,0,0,1-14.82,10Zm144,16a31.69,31.69,0,0,0,16-4.45v15.93a100.73,100.73,0,0,1-.9,12.82L230,152Zm-72-120C216,32,252,64.7,256.83,109.62l-21.11-5.28a274.48,274.48,0,0,0-132.68,0l-21.25,5.31C86.38,52.64,129.19,32,169.38,32ZM87.8,198.69l38.84-5.92c-3.06,1.68-5.26,6-5.26,11.23,0,6.62,3.58,12,8,12s8-5.38,8-12c0-6-3-11-6.85-11.82l5.32-.81a137.4,137.4,0,0,0,73.81-36.27l42.82,39.23a100,100,0,0,1-71,66.41,50,50,0,0,1-24.13,0A100.06,100.06,0,0,1,87.8,198.69Zm65.64,77.57a65.8,65.8,0,0,0,31.88,0,116.5,116.5,0,0,0,21.61-7.81l8.75,11.89L187.52,324.6l-18.14,28.5-18.14-28.5-28.17-44.26,8.75-11.89A117.32,117.32,0,0,0,153.44,276.26Z"/><ellipse class="cls-1" cx="209.38" cy="204" rx="8" ry="12"/><path class="cls-1" d="M352.54,364.42l-14.31,7.16L348.44,392H318.32l10.21-20.42-14.31-7.16L300.44,392H273.38v16h9.44l6.71,33.57a8,8,0,0,0,7.85,6.43h72a8,8,0,0,0,7.84-6.43L383.94,408h9.44V392H366.32ZM362.83,432H303.94l-4.8-24h68.49Z"/></svg>