<svg id="Capa_1" data-name="Capa 1" xmlns="http://www.w3.org/2000/svg" viewBox="0 0 512 512"><defs><style>.cls-1{fill:#ef2b2d;}</style></defs><title>medicinas_Mesa de trabajo 1</title><path class="cls-1" d="M352.36,281.73h-8.29v-8.28a32.29,32.29,0,1,0-64.57,0v8.28h-8.28a32.29,32.29,0,0,0,0,64.57h8.28v8.28a32.29,32.29,0,1,0,64.57,0V346.3h8.29a32.29,32.29,0,0,0,0-64.57Zm0,45H334.27a9.8,9.8,0,0,0-9.8,9.8v18.08a12.69,12.69,0,1,1-25.37,0V336.5a9.79,9.79,0,0,0-9.8-9.8H271.22a12.69,12.69,0,0,1,0-25.37H289.3a9.8,9.8,0,0,0,9.8-9.8V273.45a12.69,12.69,0,1,1,25.37,0v18.08a9.8,9.8,0,0,0,9.8,9.8h18.09a12.69,12.69,0,0,1,0,25.37Z"/><path class="cls-1" d="M416,156.42l-5.82-18.94a35.83,35.83,0,0,0,13.63-28.11V41A35.93,35.93,0,0,0,387.92,5.12H174.66A35.93,35.93,0,0,0,138.78,41v68.36a35.82,35.82,0,0,0,13.63,28.12l-5.83,18.93a179.25,179.25,0,0,0-7.93,52.74v165l-15.38,21.54h0L96.76,432.85a46.83,46.83,0,0,0,75.1,55.92,74.4,74.4,0,0,0,41.33,12.52h136.2a74.63,74.63,0,0,0,74.55-74.54V209.16A178.93,178.93,0,0,0,416,156.42ZM158.25,209.16a159.82,159.82,0,0,1,7.06-47l5.21-16.93H392.06l5.21,16.93a159.47,159.47,0,0,1,6.32,31.59H222.89a28.5,28.5,0,0,0-28.46,28.46V339.41a47,47,0,0,0-5.82-.44h-.11c-1.31,0-2.63,0-3.95.12l-.34,0c-.6.05-1.19.1-1.79.17h0l-1.21.17-1,.14c-.47.08-.94.18-1.41.28-.26.05-.53.09-.78.15h0c-.36.07-.71.17-1.06.25l-.82.2q-1.77.47-3.48,1l-.68.24a46.24,46.24,0,0,0-13.64,7.72l-.05,0V209.16ZM165.73,370l.21-.28c.2-.28.41-.56.62-.83l.18-.21c.24-.29.47-.58.72-.86l0-.05a27.85,27.85,0,0,1,3.82-3.56l.23-.17.45-.32.8-.56.44-.28.79-.49.41-.24c.55-.31,1.11-.6,1.67-.87l.59-.27c.37-.17.74-.32,1.12-.47a27.08,27.08,0,0,1,6.31-1.67l.9-.11c.54-.06,1.07-.1,1.6-.12l.76,0h1.36l1.11.06.4,0,.84.08.25,0a27.16,27.16,0,0,1,3.53.69l.6.17,1.22.38.24.09,1.07.4.54.22.52.24c.28.12.55.24.82.38h0c.66.33,1.31.68,1.93,1.05l.12.07c.61.37,1.21.75,1.77,1.16s1,.74,1.47,1.13a27,27,0,0,1,3.21,3.11c.13.15.27.3.39.45s.41.5.6.75l.3.39c.21.27.4.55.6.83l.2.3a27.24,27.24,0,0,1,2.4,4.4l0,.08c.17.38.32.76.46,1.14l0,.12a26.69,26.69,0,0,1,1.32,5v0c.07.42.13.85.18,1.28h0a27.27,27.27,0,0,1-.17,7.6c0,.1,0,.2,0,.3s-.09.43-.13.64l-.21,1c-.06.25-.12.5-.19.75l-.21.74a28,28,0,0,1-1.67,4.25l-.51,1a27,27,0,0,1-1.74,2.78l-6.82,9.55h0l-14,19.61-44.33-31.65Zm-3.86,99.16h0l-4.81,6.74a27.23,27.23,0,1,1-44.33-31.65l20.81-29.16,44.33,31.65Zm187.52,12.55H213.19a54.87,54.87,0,0,1-29.89-8.84l31-43.43a28.36,28.36,0,0,0,8.59,1.36H404.17A55,55,0,0,1,349.39,481.69Zm54.81-70.51H227.25c.1-.14.19-.29.28-.44l.08-.12c.08-.13.15-.26.23-.38s.27-.45.4-.67c.24-.4.47-.8.69-1.21l.06-.1.13-.26c.25-.46.5-.93.74-1.4s.59-1.22.86-1.82a44.29,44.29,0,0,0,1.67-4.32c.06-.17.1-.35.15-.53.22-.69.43-1.39.61-2.1.09-.34.18-.68.26-1,.15-.64.29-1.28.41-1.92.05-.22.11-.43.15-.65s0-.21.05-.32.06-.44.1-.66c.22-1.37.4-2.74.49-4.08s.14-2.82.11-4.2v-.14h0v0c0-1.49-.16-3-.33-4.46v0c-.09-.73-.19-1.46-.32-2.18,0,0,0-.07,0-.1a47.26,47.26,0,0,0-2.22-8.36l-.15-.43c-.23-.59-.46-1.18-.71-1.76-.06-.15-.13-.31-.2-.46-.56-1.28-1.16-2.55-1.83-3.77-.26-.47-.54-.93-.82-1.39-.14-.23-.26-.46-.4-.69l-.79-1.22-.68-1c-.25-.36-.5-.71-.76-1.06l-.88-1.14-.71-.89c-.46-.55-.93-1.09-1.42-1.63-.09-.09-.17-.2-.26-.29-1.06-1.14-2.2-2.25-3.38-3.29-.39-.34-.8-.67-1.2-1s-.63-.52-1-.77q-.78-.61-1.59-1.2l0,0-1-.71V222.23a8.87,8.87,0,0,1,8.86-8.86H404.2Zm0-301.81a16.3,16.3,0,0,1-16.29,16.28H174.66a16.29,16.29,0,0,1-16.28-16.28V41h0a16.3,16.3,0,0,1,16.28-16.29H387.92A16.31,16.31,0,0,1,404.21,41Z"/></svg>