<svg id="Capa_1" data-name="Capa 1" xmlns="http://www.w3.org/2000/svg" viewBox="0 0 512 512"><defs><style>.cls-1{fill:#ef2b2d;}</style></defs><title>restaurantes_Mesa de trabajo 1</title><path class="cls-1" d="M94.3,210.42V492.18a14.7,14.7,0,0,0,29.4,0V210.42a73.62,73.62,0,0,0,58.8-72V19.83a14.7,14.7,0,1,0-29.4,0V123.71H123.7V19.83a14.7,14.7,0,1,0-29.4,0V123.71H64.9V19.83a14.7,14.7,0,0,0-29.4,0V138.41a73.63,73.63,0,0,0,58.8,72Z"/><path class="cls-1" d="M270.7,298.62V492.18a14.7,14.7,0,0,0,29.4,0V19.83A14.7,14.7,0,0,0,278.82,6.68C237.54,27.32,211.9,69.79,211.9,115.94V226.6a73.62,73.62,0,0,0,58.8,72Z"/><path class="cls-1" d="M388.3,209.89V492.18a14.7,14.7,0,0,0,29.4,0V209.89c33.93-9.29,58.8-50.26,58.8-100.88,0-57.7-32.29-103.88-73.5-103.88S329.5,51.31,329.5,109C329.5,159.63,354.37,200.6,388.3,209.89Z"/></svg>